<svg width="380" height="400" viewBox="0 0 380 400" fill="none" xmlns="http://www.w3.org/2000/svg">
<path fill-rule="evenodd" clip-rule="evenodd" d="M195.738 89.4901C200.346 84.0814 203.464 77.4529 202.943 70.0255C201.442 48.625 171.651 53.3328 165.857 64.1339C160.062 74.9351 160.75 102.333 168.24 104.263C171.226 105.033 177.589 103.147 184.065 99.2443L180 128H204L195.738 89.4901Z" fill="#B28B67"/>
<path fill-rule="evenodd" clip-rule="evenodd" d="M175.336 52.37C178.616 51.37 183.377 51.0308 185.379 51.2603C184.24 48.5308 183.788 45.4899 184.156 42.5291C184.515 39.6521 185.8 37.2024 186.989 34.6354C187.537 33.4522 188.158 32.2754 189.084 31.3704C190.028 30.4483 191.222 29.8397 192.474 29.5494C193.755 29.2522 195.095 29.2769 196.378 29.5466C196.946 29.6659 197.455 29.9255 198.012 30.0698C198.582 30.2176 198.859 29.8608 199.273 29.5021C200.27 28.638 201.732 28.2114 202.994 28.0587C204.41 27.8875 205.879 28.101 207.229 28.5664C208.543 29.0194 209.805 29.7551 210.755 30.8268C211.178 31.3039 211.562 31.8469 211.812 32.4464C211.914 32.6924 211.931 32.8381 212.177 32.9283C212.404 33.0117 212.669 33.0141 212.904 33.0935C215.169 33.8609 217.107 35.6117 218.162 37.8595C218.777 39.1709 219.068 41.4798 218.989 44.0677C218.909 46.6556 216.572 53.4081 214.387 55.8711C212.436 58.0695 209.568 59.5203 206.801 60.1553C208.638 62.2548 209.86 64.8784 210.765 67.5467C211.747 70.445 212.355 73.4566 212.579 76.5251C212.792 79.4405 212.812 82.5235 212.129 85.3767C211.489 88.0448 210.122 90.2337 207.839 91.6223C206.794 92.2584 205.669 92.7363 204.537 93.173C203.422 93.6034 202.304 94.0219 201.136 94.2634C198.925 94.7203 196.378 94.6418 194.675 92.8822C194.061 92.2479 193.386 91.4508 192.939 90.6759C192.778 90.3972 192.68 90.215 192.876 89.9426C193.11 89.6164 193.489 89.3664 193.79 89.1112C195.507 87.6561 196.57 85.7135 196.837 83.4049C197.109 81.0626 196.48 78.0393 194.203 77.017C191.392 75.7552 188.296 77.2036 185.797 78.5537C184.735 74.806 182.555 71.4315 179.137 69.7124C175.355 67.8105 171.015 67.5879 167.129 65.9561C166.116 65.5309 165.085 65.0482 164.339 64.1818C164.027 63.8197 163.662 63.35 163.537 62.871C163.374 62.242 163.78 61.7145 164.093 61.2241C165.755 58.6236 172.057 53.37 175.336 52.37Z" fill="#191847"/>
<path fill-rule="evenodd" clip-rule="evenodd" d="M85.1163 229.096C77.9364 219.358 59.9892 225.804 60 233.866C60.0284 255.031 79.3433 355.512 80.3518 361.856C81.3603 368.2 92.1634 370.275 92.7925 362.348C93.7935 349.736 95.6532 306.013 93.7925 285.672C93.249 279.73 92.6759 273.987 92.0986 268.607C102.25 286.843 117.686 312.619 138.407 345.934L149.923 340.672C140.88 310.876 133.464 289.841 127.677 277.566C117.767 256.55 108.475 238.552 104.564 232.212C99.3982 223.838 91.0194 224.949 85.1163 229.096Z" fill="#B28B67"/>
<path fill-rule="evenodd" clip-rule="evenodd" d="M149.1 324.125L109.573 230.487C100.103 215.255 73.5538 233.587 76.7831 242.422C84.1145 262.479 121.4 327.414 123.585 333.39L149.1 324.125Z" fill="#AFB9C5"/>
<path fill-rule="evenodd" clip-rule="evenodd" d="M59 241.177C59 267.718 70.6337 330.106 70.6417 335.95L98.8239 335C93.8976 280.757 91.8201 253.452 92.5915 253.084C94.327 252.257 163.738 262.691 184.555 263.479C214.574 264.615 226.992 246.199 228 211.251H169.852C120.131 217.186 87.452 221.314 71.8155 223.634C61.7741 225.125 59 233.865 59 241.177Z" fill="#AFB9C5"/>
<path fill-rule="evenodd" clip-rule="evenodd" d="M151.482 337.736C153.29 340.363 154.373 342.396 154.732 343.835C155.168 345.585 155.514 348.211 155.767 351.713C153.738 352.219 135.496 356.767 101.041 365.358C98.4467 361.011 98.6348 358.268 101.605 357.129C104.576 355.99 107.037 355.017 108.988 354.209L131.597 336.528C132.032 336.188 132.661 336.264 133.001 336.7C133.007 336.707 133.013 336.714 133.018 336.722L135.642 340.281C138.808 340.897 141.278 340.984 143.052 340.542C144.493 340.182 146.337 339.104 148.586 337.308L148.586 337.308C149.449 336.618 150.707 336.759 151.397 337.622C151.427 337.659 151.455 337.697 151.482 337.736Z" fill="#E4E4E4"/>
<path fill-rule="evenodd" clip-rule="evenodd" d="M94.3219 347.402C95.4406 350.388 96 352.623 96 354.106C96 355.909 95.6996 358.54 95.0988 362C93.0068 362 74.2062 362 38.6969 362C37.2313 357.155 38.0773 354.539 41.2352 354.152C44.393 353.766 47.0163 353.417 49.105 353.106L75.32 341.419C75.8244 341.194 76.4157 341.421 76.6405 341.925C76.6444 341.934 76.6481 341.942 76.6517 341.951L78.3368 346.039C81.2601 347.403 83.6356 348.085 85.4633 348.085C86.9483 348.085 88.999 347.485 91.6155 346.285L91.6155 346.285C92.6196 345.825 93.8067 346.266 94.267 347.27C94.2869 347.313 94.3052 347.357 94.3219 347.402Z" fill="#E4E4E4"/>
<path d="M45.5 362H91.5C93.433 362 95 363.567 95 365.5C95 367.433 93.433 369 91.5 369H45.5C43.567 369 42 367.433 42 365.5C42 363.567 43.567 362 45.5 362Z" fill="#2F3676"/>
<path fill-rule="evenodd" clip-rule="evenodd" d="M231 217H124C118.477 217 114 221.477 114 227V276H237C239.209 276 241 274.209 241 272V227C241 221.477 236.523 217 231 217Z" fill="#2F3676"/>
<path fill-rule="evenodd" clip-rule="evenodd" d="M124 217H121.806C116.909 217 112.732 220.547 111.938 225.38L90 359H100.686" fill="#2F3676"/>
<path d="M95 379C85.0589 379 77 370.941 77 361C77 351.059 85.0589 343 95 343C104.941 343 113 351.059 113 361C113 370.941 104.941 379 95 379Z" fill="#191847"/>
<path fill-rule="evenodd" clip-rule="evenodd" d="M228 377C269.974 377 304 342.974 304 301C304 259.026 269.974 225 228 225C186.026 225 152 259.026 152 301C152 342.974 186.026 377 228 377ZM228 363C193.758 363 166 335.242 166 301C166 266.758 193.758 239 228 239C262.242 239 290 266.758 290 301C290 335.242 262.242 363 228 363Z" fill="#191847"/>
<path d="M224 235H232V367H224V235Z" fill="#191847"/>
<path d="M179.917 255.745L182.745 252.917C183.526 252.136 184.793 252.136 185.574 252.917L276.083 343.426C276.864 344.207 276.864 345.474 276.083 346.255L273.255 349.083C272.474 349.864 271.207 349.864 270.426 349.083L179.917 258.574C179.136 257.793 179.136 256.526 179.917 255.745Z" fill="#191847"/>
<path d="M162 303V299C162 297.895 162.895 297 164 297H292C293.105 297 294 297.895 294 299V303C294 304.105 293.105 305 292 305H164C162.895 305 162 304.105 162 303Z" fill="#191847"/>
<path d="M182.745 349.083L179.917 346.255C179.136 345.474 179.136 344.207 179.917 343.426L270.426 252.917C271.207 252.136 272.474 252.136 273.255 252.917L276.083 255.745C276.864 256.526 276.864 257.793 276.083 258.574L185.574 349.083C184.793 349.864 183.526 349.864 182.745 349.083Z" fill="#191847"/>
<path fill-rule="evenodd" clip-rule="evenodd" d="M126.544 108.341L88.64 96.9624C81.569 91.458 74.8995 87.4334 68.6313 84.8886C66.8083 84.5455 63.7903 84.7448 67.5617 89.023C71.3331 93.3013 75.1077 97.9709 74.0309 99.7648C72.9541 101.559 69.0307 100.206 67.8952 103.048C67.1382 104.942 73.6383 106.299 87.3955 107.118L116.866 124.463L126.544 108.341ZM129.893 175.168L97.9949 198.592C89.3434 200.926 82.1154 203.831 76.3108 207.305C74.9397 208.555 73.2825 211.085 78.969 210.648C84.6554 210.21 90.6564 210.006 91.441 211.946C92.2256 213.885 88.7845 216.205 90.3706 218.822C91.4279 220.566 96.4234 216.192 105.357 205.698L136.945 192.599L129.893 175.168Z" fill="#B28B67"/>
<path fill-rule="evenodd" clip-rule="evenodd" d="M179.439 112.087C162.069 144.476 136.95 169.305 100.534 195.116L114.323 210.663C154.982 195.553 176.441 186.436 186.979 155.835C189.624 148.154 191.472 123.671 193.058 110.789L179.439 112.087Z" fill="#89C5CC"/>
<path fill-rule="evenodd" clip-rule="evenodd" d="M228 220H151C168.442 166.805 177.352 130.296 177.73 110.472C177.749 109.461 179.616 107.68 180.441 107.913C186.48 109.619 192.943 108.981 199.828 106C218.083 135.358 224.395 171.505 228 220Z" fill="#F2F2F2"/>
<path fill-rule="evenodd" clip-rule="evenodd" d="M193.257 106.047C171.186 106.228 135.376 110.259 94.0773 97L90 117.373C121.213 137.448 152.819 152.999 180.514 150.791C168.488 202.377 169.042 244.606 195.593 244.606C208.272 244.606 221.957 244.606 236.649 244.606C243.17 200.784 226.032 140.024 210.144 109.377C209.537 108.206 208.246 106 205.203 106C202.552 106 198.575 106 193.273 106C193.268 106.016 193.263 106.032 193.257 106.047Z" fill="#89C5CC"/>
</svg>
