<svg width="239" height="397" viewBox="0 0 239 397" fill="none" xmlns="http://www.w3.org/2000/svg">
<path fill-rule="evenodd" clip-rule="evenodd" d="M118.262 36.4901C113.654 31.0814 110.536 24.4529 111.057 17.0255C112.558 -4.37502 142.349 0.332811 148.143 11.1339C153.938 21.9351 153.25 49.333 145.76 51.2635C142.774 52.0333 136.411 50.1475 129.935 46.2443L134 75H110L118.262 36.4901Z" fill="#B28B67"/>
<path fill-rule="evenodd" clip-rule="evenodd" d="M131.135 19.3889C132.054 32.1861 134.484 38.5847 138.426 38.5847C144.339 38.5847 149.355 34.831 151.95 34.831C153.841 34.831 153.419 37.1977 152.165 38.9525C151.131 40.4002 146.094 41.7956 146.094 44.0401C146.094 46.2845 150.073 44.5481 150.073 45.8792C150.073 48.0811 150.773 52.221 146.951 52.221C143.084 52.221 131.995 50.8116 130.094 45.0715C128.868 41.367 128.075 33.6906 127.716 22.0422C127.481 22.0143 127.242 22 127 22C123.686 22 121 24.6863 121 28C121 29.6822 121.692 31.2027 122.808 32.2922C121.419 34.2518 119.863 36.2989 118.08 38.4112C111.382 34.3927 106.412 22.629 112.961 11.3283C114.771 5.79224 118.868 2.83524 123.707 1.46221C127.627 -0.177581 131.697 -0.362469 135.132 0.620569C141.866 1.19816 147.879 3.25151 149.583 4.47095C149.583 10.8462 148.348 12.7377 137.797 12.571C135.204 13.9401 133.211 16.2979 131.135 19.3889Z" fill="#191847"/>
<path fill-rule="evenodd" clip-rule="evenodd" d="M102 158L138.255 285.227L164.707 379H184L155.891 158H102Z" fill="#89C5CC"/>
<path fill-rule="evenodd" clip-rule="evenodd" d="M92.3044 158C91.4658 223.574 88.6063 259.34 87.7258 265.298C86.8453 271.256 73.5322 309.156 47.7864 379H67.7727C100.549 311.997 118.846 274.096 122.663 265.298C126.479 256.5 138.259 220.734 156 158H92.3044Z" fill="#89C5CC"/>
<path fill-rule="evenodd" clip-rule="evenodd" d="M46 397L47 376H68C77.9576 383 90.9576 388.667 107 393V397H69L56 395V397H46Z" fill="#323337"/>
<path fill-rule="evenodd" clip-rule="evenodd" d="M162 397L163 376H184C193.958 383 206.958 388.667 223 393V397H185L172 395V397H162Z" fill="#323337"/>
<path fill-rule="evenodd" clip-rule="evenodd" d="M186.359 141.61L216.546 167.202C225.013 170.134 232.021 173.536 237.569 177.407C238.85 178.749 240.326 181.388 234.684 180.555C229.042 179.722 223.07 179.1 222.152 180.98C221.234 182.86 224.505 185.414 222.74 187.914C221.564 189.581 216.885 184.868 208.706 173.777L178.109 158.507L186.359 141.61ZM49.6672 130.536L67.379 133.108C48.3669 174.358 38.1744 196.173 36.8012 198.554C33.7117 203.91 37.3452 213.24 38.7656 218.179C31.5872 220.252 33.8798 209.162 24.8031 211.928C16.5184 214.453 9.68175 220.177 1.47649 213.37C0.467701 212.533 -0.382079 209.797 2.82431 208.203C10.8126 204.231 22.5413 196.963 24.3645 194.284C26.8507 190.631 35.2849 169.382 49.6672 130.536Z" fill="#B28B67"/>
<path fill-rule="evenodd" clip-rule="evenodd" d="M123.695 58.332L134.67 54.7026C149.558 91.8929 171.761 127.876 208.857 158.27L199.684 174.097C167.081 154.892 136.219 139.973 123.695 111.155C119.492 101.483 123.352 69.897 123.695 58.332Z" fill="#C5CFD6"/>
<path fill-rule="evenodd" clip-rule="evenodd" d="M86 163C117.438 166.333 142.184 166.333 160.236 163C162.473 162.587 162.826 158.842 161.788 156.301C145.636 116.724 134.56 82.1916 134.56 54.7026C131.597 56.1968 126.41 56.4207 119 55.3744C99.0862 83.7027 89.9325 116.206 86 163Z" fill="#323337"/>
<path fill-rule="evenodd" clip-rule="evenodd" d="M114.049 53H122.349C124.281 64.3649 130.376 218.263 149.191 268.606H47.3854C49.5925 222.487 67.003 167.087 84.6399 120.728C69.0445 134.999 55.4519 159.181 43.862 193.273L24.7927 188.378C38.9713 127.281 68.1226 82.3749 112.246 53.659C112.342 53.4383 112.437 53.2186 112.532 53H113.266C113.536 52.8265 113.807 52.6536 114.079 52.4813L114.049 53Z" fill="#DDE3E9"/>
</svg>
