<svg width="230" height="439" viewBox="0 0 230 439" fill="none" xmlns="http://www.w3.org/2000/svg">
<path fill-rule="evenodd" clip-rule="evenodd" d="M96.0467 60.9498C92.8648 54.2574 91.5123 46.7384 94.0421 39.3969C101.331 18.2443 130.07 31.0277 132.992 43.4725C135.914 55.9173 127.825 83.331 119.759 83.2541C116.543 83.2235 110.643 79.6063 105.173 73.9266L101.506 103.991L77.329 97.5129L96.0467 60.9498Z" fill="#D4A181"/>
<path fill-rule="evenodd" clip-rule="evenodd" d="M104.82 61.676C100.281 66.6273 94.9729 69.85 90.8305 68.74C82.9623 66.6318 80.1865 54.6132 83.2171 43.3028C83.3236 42.9054 83.4372 42.5128 83.5577 42.1252C73.7042 45.6065 64.273 55.1459 53.2601 52.195C38.2771 48.1803 40.4244 16.3651 61.3577 21.9742C75.594 25.7888 82.0406 29.7408 87.2531 34.4273C89.3425 31.3906 91.9135 29.0557 94.6608 27.6802C95.3558 27.2222 96.3284 26.8665 97.5273 26.6163C98.2676 26.4361 99.0128 26.3274 99.7574 26.2949C103.755 25.9326 109.28 26.4018 115.224 27.774C116.334 28.0303 117.417 28.3084 118.466 28.6048C119.97 23.0606 125.678 19.7743 131.231 21.2622C136.794 22.753 140.096 28.4715 138.605 34.035C137.163 39.4154 131.767 42.6804 126.382 41.5411C123.093 41.6645 119.006 41.3069 114.601 40.4374C114.597 42.1302 114.345 43.9865 113.801 46.0151C113.321 47.8064 112.614 49.6531 111.734 51.4844C111.094 50.1172 110.034 49.0528 108.76 48.7115C105.196 47.7566 101.93 50.0235 101.096 53.1361C100.038 57.0865 101.553 60.5553 104.82 61.676Z" fill="#191847"/>
<path fill-rule="evenodd" clip-rule="evenodd" d="M46.4907 189.707L84.6929 321.348L102.661 420.186H120.696L102.693 189.707H46.4907Z" fill="#BA8B72"/>
<path fill-rule="evenodd" clip-rule="evenodd" d="M29.3222 189.707C31.9878 258.094 30.9365 295.394 30.3399 301.607C29.7433 307.82 26.3564 349.433 3.27686 422.272H22.0347C52.5997 352.395 63.2697 310.783 66.7753 301.607C70.2808 292.431 80.6344 255.131 95.7501 189.707H29.3222Z" fill="#D4A181"/>
<path fill-rule="evenodd" clip-rule="evenodd" d="M45.6707 189.707C55.6076 235.005 72.7943 307.312 97.2308 406.629H123.609C125.557 304.69 117.269 237.597 102.916 189.707H45.6707Z" fill="#69A1AC"/>
<path fill-rule="evenodd" clip-rule="evenodd" d="M29.189 189.707C31.7996 258.094 25.034 325.468 4.07666 407.694H32.2205C62.8418 338.859 84.789 271.817 99.7885 189.707H29.189Z" fill="#89C5CC"/>
<path fill-rule="evenodd" clip-rule="evenodd" d="M0.603271 435.83L1.63826 419.144C7.698 420.916 15.288 420.221 24.4081 417.058C34.2145 424.004 46.5594 428.747 61.4429 431.287L61.4429 431.287C62.5785 431.481 63.3419 432.559 63.1481 433.694C63.1356 433.768 63.1191 433.84 63.0987 433.912L61.6679 438.959H24.4081H2.67326L0.603271 435.83Z" fill="#191847"/>
<path fill-rule="evenodd" clip-rule="evenodd" d="M98.6355 435.83L99.6705 419.144C105.73 420.916 113.32 420.221 122.44 417.058C132.247 424.004 144.592 428.747 159.475 431.287L159.475 431.287C160.611 431.481 161.374 432.559 161.18 433.694C161.168 433.768 161.151 433.84 161.131 433.912L159.7 438.959H122.44H100.705L98.6355 435.83Z" fill="#191847"/>
<path fill-rule="evenodd" clip-rule="evenodd" d="M121.111 131.079L160.203 117.84C167.372 111.845 174.177 107.408 180.617 104.528C182.505 104.104 185.658 104.201 181.883 108.798C178.108 113.394 174.343 118.398 175.531 120.229C176.719 122.059 180.759 120.507 182.046 123.428C182.903 125.374 176.178 127.025 161.869 128.38L131.784 147.529L121.111 131.079ZM174.039 157.397L191.215 151.556C194.886 143.583 198.254 139.839 201.319 140.326C203.859 139.647 197.908 149.491 202.52 149.359C207.132 149.228 219.417 143.065 220.999 145.035C223.34 147.95 219.558 154.965 215.995 158.159C209.338 164.127 204.419 165.702 192.747 166.842C186.644 167.439 179.782 169.581 172.16 173.268L174.039 157.397Z" fill="#D4A181"/>
<path fill-rule="evenodd" clip-rule="evenodd" d="M104.517 123.668C117.027 125.738 134.142 126.037 153.897 117.892L158.131 134.682C143.732 144.683 124.738 151.637 109.746 148.557C97.9311 146.13 94.3952 130.698 104.517 123.668Z" fill="#BBBDC0"/>
<path fill-rule="evenodd" clip-rule="evenodd" d="M116.93 151.586C129.603 157.229 152.52 157.25 185.68 151.649C190.597 169.025 192.162 181.071 190.376 187.787C161.143 197.049 137.101 199.238 118.128 196.317C116.751 207.638 113.504 218.069 107.199 227.011C94.2366 245.395 42.3065 217.096 23.101 217.477C18.1337 177.679 43.3132 166.301 47.5902 142.15C52.2741 115.702 80.6922 78.7328 83.8171 79.2838L112.314 84.3087C110.325 104.787 114.313 128.446 116.93 151.586Z" fill="#D1D1D1"/>
</svg>
