<svg width="295" height="462" viewBox="0 0 295 462" fill="none" xmlns="http://www.w3.org/2000/svg">
<path fill-rule="evenodd" clip-rule="evenodd" d="M118.87 73.7409C112.545 69.4236 107.44 63.4238 105.922 55.5751C101.546 32.9606 134.024 29.491 143.089 39.0677C152.153 48.6444 159.046 77.2506 151.746 81.3523C148.835 82.988 141.654 82.8161 133.794 80.5838L146.037 109.265L120.926 115.994L118.87 73.7409Z" fill="#784931"/>
<path fill-rule="evenodd" clip-rule="evenodd" d="M129.901 29.5256C126.192 29.408 121.116 30.3909 119.085 31.1903C119.518 28.0404 119.146 24.7601 117.938 21.7928C116.764 18.9096 114.738 16.7296 112.781 14.4008C111.878 13.3274 110.901 12.2811 109.681 11.6022C108.438 10.9105 107.019 10.6141 105.629 10.664C104.205 10.715 102.81 11.1163 101.542 11.7558C100.982 12.0387 100.521 12.4507 99.9783 12.7564C99.4228 13.0696 99.0343 12.7771 98.5016 12.5212C97.2179 11.9046 95.5696 11.8721 94.2069 12.0675C92.6782 12.2868 91.2006 12.9201 89.9173 13.7812C88.6682 14.6195 87.5517 15.7363 86.8554 17.1142C86.5453 17.7275 86.2944 18.3983 86.1999 19.09C86.1612 19.3738 86.184 19.5297 85.9521 19.692C85.7377 19.8422 85.4605 19.9191 85.2374 20.0672C83.0799 21.4983 81.5394 23.857 81.0603 26.4838C80.7808 28.0164 81.1174 30.4925 81.9201 33.1539C82.7227 35.8153 87.044 42.1629 90.0152 44.1045C92.6673 45.8374 96.0707 46.538 99.1426 46.4208C97.8042 49.1131 97.2539 52.1767 97.0492 55.1973C96.827 58.4784 97.0279 61.7719 97.6457 65.017C98.2328 68.1002 99.0688 71.3031 100.577 74.0703C101.987 76.6581 104.026 78.5447 106.8 79.3448C108.071 79.7114 109.381 79.8916 110.686 80.0273C111.972 80.161 113.259 80.2814 114.548 80.2044C116.988 80.0584 119.631 79.263 120.924 76.9608C121.39 76.1309 121.875 75.115 122.128 74.1858C122.219 73.8517 122.27 73.6355 121.99 73.4078C121.654 73.1352 121.188 72.9822 120.802 72.8019C118.602 71.7742 116.95 70.0575 116.028 67.7385C115.093 65.3856 114.911 62.0738 117.01 60.3753C119.601 58.2785 123.242 58.9126 126.232 59.6123C126.301 55.428 127.645 51.3172 130.744 48.576C134.172 45.5434 138.651 44.0959 142.264 41.3141C143.206 40.5892 144.151 39.7994 144.69 38.6918C144.915 38.229 145.167 37.6393 145.164 37.1078C145.161 36.4096 144.59 35.9764 144.125 35.5556C141.664 33.3247 133.61 29.6432 129.901 29.5256Z" fill="#191847"/>
<path fill-rule="evenodd" clip-rule="evenodd" d="M126.653 203.436L165.925 340.719L194.578 441.904H215.477L185.029 203.436H126.653Z" fill="#89C5CC"/>
<path fill-rule="evenodd" clip-rule="evenodd" d="M116.15 203.436C115.242 274.193 112.144 312.786 111.19 319.215C110.237 325.643 95.8156 366.54 67.9272 441.904H89.5768C125.081 369.605 144.9 328.709 149.035 319.215C153.169 309.721 165.929 271.128 185.147 203.436H116.15Z" fill="#89C5CC"/>
<path fill-rule="evenodd" clip-rule="evenodd" d="M65.9921 461.494L67.0754 438.746H89.8231C100.609 446.329 114.691 452.467 132.069 457.161V461.494H90.9063L76.8244 459.328V461.494H65.9921Z" fill="#323337"/>
<path fill-rule="evenodd" clip-rule="evenodd" d="M191.646 461.494L192.729 438.746H215.477C226.263 446.329 240.345 452.467 257.723 457.161V461.494H216.56L202.478 459.328V461.494H191.646Z" fill="#323337"/>
<path fill-rule="evenodd" clip-rule="evenodd" d="M214.948 174.838L251.94 196.325C261.522 197.845 269.634 200.138 276.277 203.204C277.895 204.387 279.964 206.911 273.789 207.089C267.614 207.266 261.127 207.729 260.5 209.897C259.872 212.065 263.84 214.161 262.425 217.147C261.482 219.137 255.609 215.015 244.807 204.78L209.309 194.326L214.948 174.838ZM67.0568 188.794L86.4326 188.193C73.872 235.556 67.0821 260.63 66.0629 263.416C63.7698 269.683 69.3922 278.904 71.8319 283.879C64.5622 287.43 64.9319 275.226 55.767 279.869C47.4018 284.108 41.18 291.47 31.1529 285.788C29.9202 285.09 28.5015 282.345 31.6235 280.05C39.4017 274.331 50.5531 264.409 51.9966 261.223C53.9651 256.877 58.9852 232.735 67.0568 188.794Z" fill="#B28B67"/>
<path fill-rule="evenodd" clip-rule="evenodd" d="M132.513 98.2242L143.541 92.3072C166.384 128.985 196.804 163.005 242.067 188.291L235.243 206.816C196.869 192.563 161.153 182.531 142.4 154.296C136.105 144.82 134.311 110.565 132.513 98.2242Z" fill="#C5CFD6"/>
<path fill-rule="evenodd" clip-rule="evenodd" d="M111.892 216.421C146.053 214.046 172.451 209.391 191.085 202.457C193.393 201.598 193.069 197.557 191.487 195.054C166.848 156.081 148.569 121.508 143.424 92.3278C140.542 94.4713 135.051 95.6846 126.951 95.9678C111.01 129.784 107.328 166.009 111.892 216.421Z" fill="#AECFD3"/>
<path fill-rule="evenodd" clip-rule="evenodd" d="M121.225 94.3785L130.078 92.8175C134.267 104.518 169.574 266.736 199.068 316.637L90.4656 335.786C84.1879 286.416 92.3915 224.333 102.529 171.805C88.5633 189.887 78.5893 218.113 72.6066 256.482L51.3479 254.873C55.0375 187.351 77.7299 134.199 119.425 95.4173C119.486 95.165 119.546 94.9139 119.606 94.664L120.389 94.5259C120.645 94.2909 120.902 94.0564 121.159 93.8224L121.225 94.3785Z" fill="#DDE3E9"/>
</svg>
