<svg width="20" height="21" viewBox="0 0 20 21" fill="none" xmlns="http://www.w3.org/2000/svg">
<path fill-rule="evenodd" clip-rule="evenodd" d="M3.44743 1.36605C2.94352 1.36605 2.46024 1.57676 2.10393 1.95183C1.74761 2.32691 1.54743 2.83562 1.54743 3.36605V6.69938H0.280762V3.36605C0.280762 2.48199 0.614392 1.63415 1.20826 1.00903C1.80212 0.383904 2.60758 0.0327148 3.44743 0.0327148L6.61409 0.0327148V1.36605H3.44743ZM16.1141 1.36605H12.9474V0.0327148H16.1141C16.9539 0.0327148 17.7594 0.383904 18.3533 1.00903C18.9471 1.63415 19.2808 2.48199 19.2808 3.36605V6.69938H18.0141V3.36605C18.0141 2.83562 17.8139 2.32691 17.4576 1.95183C17.1013 1.57676 16.618 1.36605 16.1141 1.36605V1.36605ZM6.61409 8.03271H5.34743V6.69938H6.61409V8.03271ZM14.2141 8.03271H12.9474V6.69938H14.2141V8.03271ZM6.48743 11.6327C6.87088 12.1709 7.36811 12.6077 7.93973 12.9086C8.51135 13.2094 9.14167 13.366 9.78076 13.366C10.4199 13.366 11.0502 13.2094 11.6218 12.9086C12.1934 12.6077 12.6906 12.1709 13.0741 11.6327L14.0874 12.4327C11.9341 15.4554 7.62743 15.4554 5.47409 12.4327L6.48743 11.6327V11.6327ZM0.280762 16.6994V13.366H1.54743V16.6994C1.54743 17.2298 1.74761 17.7385 2.10393 18.1136C2.46024 18.4887 2.94352 18.6994 3.44743 18.6994H6.61409V20.0327H3.44743C2.60758 20.0327 1.80212 19.6815 1.20826 19.0564C0.614392 18.4313 0.280762 17.5834 0.280762 16.6994H0.280762ZM19.2808 13.366V16.6994C19.2808 17.5834 18.9471 18.4313 18.3533 19.0564C17.7594 19.6815 16.9539 20.0327 16.1141 20.0327H12.9474V18.6994H16.1141C16.618 18.6994 17.1013 18.4887 17.4576 18.1136C17.8139 17.7385 18.0141 17.2298 18.0141 16.6994V13.366H19.2808Z" fill="black"/>
</svg>
