<svg width="700" height="554" viewBox="0 0 700 554" fill="none" xmlns="http://www.w3.org/2000/svg">
<path fill-rule="evenodd" clip-rule="evenodd" d="M689.225 138.334C688.692 137.946 687.426 137.809 686.838 137.692C684.39 137.21 681.869 137 679.374 137C671.681 137.012 663.863 137.767 656.298 139.074C651.494 139.903 645.687 142.696 640.909 141.179C632.585 138.537 624.172 138.667 616.274 142.439C609.053 145.888 603.572 152.439 600.373 159.517C599.89 160.586 597.932 164.519 597.378 167.17C597.141 167.712 596.913 168.257 596.708 168.811C596.126 170.384 595.603 171.984 595.118 173.588C594.91 174.272 594.389 175.782 595.008 176.074C594.019 177.901 593.141 179.783 592.411 181.726C590.286 187.378 587.962 193.578 587.215 199.568C586.939 201.786 586.928 204.017 587.185 206.239C587.312 207.338 587.26 209.546 588.004 210.382C589.585 212.154 590.396 209.673 590.218 208.491C588.858 199.485 591.485 191.027 594.598 182.561C596.612 177.087 599.92 172.078 603.626 167.543C606.625 163.871 609.842 160.98 613.953 158.546C618.981 155.569 624.356 153.163 629.681 150.749C633.184 149.161 636.691 147.615 640.291 146.247C641.092 145.942 642.351 145.161 643.239 145.158C645.116 145.152 647.777 146.537 649.59 147.052C655.554 148.748 661.594 150.919 667.758 151.785C671.712 152.341 675.416 151.715 679.113 150.398C679.491 150.264 680.125 149.918 680.901 149.424C683.646 148.368 686.243 147.039 688.504 145.121C689.807 144.017 690.989 142.589 692.067 141.282C692.389 140.892 692.532 140.444 692.537 140.018C692.781 139.891 692.943 139.741 692.98 139.567C693.249 138.281 690.796 138.258 689.225 138.334Z" fill="#89C5CC"/>
<path fill-rule="evenodd" clip-rule="evenodd" d="M64.2734 245.541C62.7641 246.763 61.2838 248.011 59.8396 249.31C58.7389 250.3 56.7911 251.485 56.396 252.985C55.9852 254.544 57.2819 256.003 58.3063 256.945C63.7233 261.929 69.8231 265.298 77.3293 265.859C88.8871 266.722 98.9457 263.77 108.974 257.963C116.018 253.883 120.684 247.849 121.703 239.701C130.092 243.187 138.205 247.993 145.1 253.891C148.502 256.801 151.432 260.025 154.142 263.599C155.878 265.889 157.557 268.215 159.115 270.631C159.792 271.68 160.481 273.542 161.599 274.146C162.912 274.856 164.499 273.743 164.434 272.284C164.379 271.069 163.068 269.66 162.454 268.667C161.436 267.018 160.402 265.379 159.313 263.776C157.551 261.179 155.73 258.62 153.744 256.19C149.28 250.73 143.601 246.221 137.714 242.375C126.42 234.997 114.025 230.349 100.283 229.955C91.8332 229.713 84.7248 232.6 77.4988 236.911C72.9999 239.595 68.3558 242.235 64.2734 245.541Z" fill="#DDE3E9"/>
<path fill-rule="evenodd" clip-rule="evenodd" d="M173.883 209.856C165.078 200.787 156.241 191.832 146.403 183.846C140.605 179.141 134.495 174.862 128.511 170.401C129.201 171.006 129.878 171.628 130.539 172.266C128.671 170.997 126.226 170.281 124.246 169.107C122.037 167.798 119.925 166.3 117.854 164.791C113.811 161.845 109.829 158.843 105.673 156.051C101.043 152.94 96.2446 150.066 91.5357 147.072C87.5392 144.532 83.4939 141.751 79.2185 139.674C76.8883 138.542 74.5526 137.2 72.2129 136.02C71.4298 135.625 63.4841 130.608 63.5041 130.592C63.9433 130.262 67.9418 132.14 68.5601 132.393C70.3664 133.131 72.0938 134.013 73.8304 134.893C72.8772 133.013 72.1227 131.037 71.712 128.958C71.5851 128.316 70.5685 123.644 71.0887 123.252C71.3485 123.056 73.8835 131.416 74.0133 132.219C74.1188 132.872 74.1033 133.812 74.317 134.43C74.662 135.429 74.6446 135.127 75.4047 135.69C76.7977 136.721 78.6468 137.365 80.1545 138.226C80.9675 138.68 83.4847 140.48 85.0009 140.993C89.5884 143.221 94.2382 146.649 98.597 149.495C97.4531 147.345 96.5825 145.097 95.9477 142.741C95.7966 142.182 94.1675 137.164 94.5628 136.867C95.0075 136.531 98.1117 144.195 98.2956 144.92C98.6372 146.268 98.7081 147.767 99.1357 149.079C99.6052 150.518 101.07 151.028 102.39 151.867C107.247 154.953 111.938 158.232 116.55 161.662C121.583 152.711 115.78 141.903 110.89 134.393C107.364 128.98 102.619 124.34 97.6077 120.289C90.9203 114.882 83.269 110.563 75.6271 106.612C66.7227 102.009 57.0987 99.1563 47.0933 97.8386C41.8603 97.1494 36.5067 97.1687 31.2208 97.3896C28.6387 97.4974 26.1602 97.8395 23.6857 98.6816C22.5704 99.0616 21.4925 99.5405 20.4421 100.077C19.644 100.484 17.7134 100.914 17.2545 101.521C13.4772 106.438 11.5448 111.337 11.8399 117.515C12.1189 123.363 13.9659 129.214 16.4725 134.431C19.264 140.239 22.8542 145.511 27.5497 149.936C31.1321 153.312 35.1372 156.25 39.1159 159.15C53.267 169.463 71.2082 178.433 89.5363 176.128C95.4692 175.383 101.112 173.308 106.385 170.488C107.628 169.824 108.863 169.152 110.036 168.368C110.827 167.839 112.941 165.456 113.736 165.369C114.827 165.251 117.175 167.468 118.198 168.143C125.972 173.275 133.542 178.685 140.953 184.313C148.839 190.301 156.337 196.697 163.615 203.393C166.71 206.241 169.786 209.096 172.791 212.04C173.491 212.725 175.202 215.247 176.471 215.361C177.273 215.434 177.814 214.748 177.7 214.006C177.501 212.715 174.785 210.784 173.883 209.856Z" fill="#C1DEE2"/>
<path fill-rule="evenodd" clip-rule="evenodd" d="M679.98 174.66C676.57 173.915 672.803 173.972 669.329 174.033C650.695 174.287 632.397 183.109 620.489 197.205C610.351 209.205 607.563 224.125 605.56 239.207C605.362 240.704 605.277 242.192 605.165 243.693C605.141 244.015 605.105 244.302 605.066 244.573C604.279 245.277 603.865 246.098 604.332 247C602.597 250.797 601.129 254.69 599.869 258.706C596.162 270.526 592.392 282.571 594.714 295C595.257 288.16 596.399 281.166 597.764 274.438C597.842 274.052 597.927 273.669 598.015 273.287C598.025 273.247 598.033 273.206 598.042 273.166C598.525 271.106 599.153 269.108 599.917 267.141C599.925 267.119 599.933 267.098 599.941 267.077C600.042 266.818 600.149 266.56 600.255 266.303C600.474 265.77 600.699 265.238 600.937 264.708C601.018 264.528 601.095 264.346 601.17 264.163C602.282 261.437 602.751 258.365 603.748 255.545C603.986 254.904 604.235 254.265 604.496 253.629C604.512 253.592 604.527 253.555 604.543 253.518C605.249 251.807 606.028 250.118 606.853 248.446C607.301 248.109 607.54 247.274 607.927 246.515C608.006 246.365 608.631 245.368 608.817 244.793C609.303 243.854 609.786 242.915 610.275 241.977C610.26 241.983 610.246 241.988 610.231 241.994C610.72 241.093 611.211 240.197 611.698 239.304C611.805 239.108 611.913 238.912 612.021 238.715C612.196 238.402 612.371 238.089 612.545 237.777C614.177 234.856 615.908 231.994 617.705 229.167C618.347 228.158 619.879 226.711 620.173 225.579C620.184 225.536 620.186 225.497 620.193 225.457C624.093 219.979 628.582 214.927 633.966 210.924C633.316 211.628 631.932 214.015 631.567 214.488C630.447 215.935 629.232 217.282 628.013 218.646C625.828 221.089 623.696 223.609 621.801 226.274C618.335 231.148 615.346 236.277 612.519 241.51C612.493 241.54 612.463 241.569 612.438 241.601C611.017 243.352 610.123 245.998 609.101 248.001C613.147 246.127 617.622 244.906 621.774 243.242C625.916 241.583 629.945 239.735 633.834 237.566C639.003 234.682 644.366 231.427 649.25 227.743C654.848 224.271 659.551 219.492 663.703 214.477C668.615 208.543 673.117 202.558 675.901 195.353C677.269 191.813 678.345 188.121 678.983 184.386C679.011 184.224 679.046 184.047 679.085 183.864C679.738 182.574 680.321 181.255 680.811 179.906C681.588 177.766 683.425 175.412 679.98 174.66Z" fill="#89C5CC"/>
<path fill-rule="evenodd" clip-rule="evenodd" d="M102.009 199.729C100.94 198.572 99.7398 197.528 98.3307 196.783C97.9745 196.595 95.3209 195.335 95.148 195.611C94.7455 196.255 101.688 199.359 102.009 199.729ZM114.59 192C114.581 192.049 115.501 193.61 115.752 194.09C116.285 195.111 116.777 196.151 117.24 197.194C116.555 195.353 115.85 193.645 114.59 192ZM50.2451 204.709C49.359 204.994 48.2935 203.869 49.443 203.592C50.373 203.37 50.3274 203.318 50.745 202.568C51.0842 201.96 51.2931 201.218 51.5907 200.58C52.2219 199.226 52.9379 197.934 53.8167 196.724C55.7003 194.13 57.9953 191.895 60.5692 190.011C65.0613 186.725 70.098 183.72 75.4408 182.211C83.936 179.811 93.6047 179.663 102.113 181.327C107.383 182.357 112.198 184.149 115.697 188.392C117.446 190.512 118.819 192.996 119.419 195.731C119.576 196.446 119.546 197.241 119.743 197.941C120.044 199.018 119.911 198.731 121.17 198.94C122.544 199.169 123.918 199.402 125.29 199.64C128.885 200.262 132.501 200.922 136.004 201.931C137.157 202.263 138.284 202.669 139.386 203.14C140.219 203.496 143.536 204.615 143.939 205.697C144.61 207.498 142.362 206.682 141.663 206.289C141.051 205.946 140.423 205.625 139.786 205.33C138.181 204.588 136.509 204.013 134.799 203.556C132.951 203.062 131.066 202.693 129.187 202.323C127.436 201.979 125.678 201.666 123.917 201.366C122.939 201.2 121.961 201.038 120.982 200.877C120.647 200.821 120.058 200.532 120.102 200.967C118.045 200.57 115.819 200.627 113.723 200.518C111.156 200.384 108.579 200.274 106.003 200.354C104.145 200.412 102.286 200.534 100.437 200.784C99.3571 200.93 98.2942 201.143 97.2345 201.413C96.6524 201.562 94.357 201.877 94.0399 202.384C94.1762 202.166 96.7095 202.378 97.0319 202.365C98.3216 202.317 99.6013 202.189 100.886 202.046C103.271 201.779 105.656 201.64 108.048 201.66C108.039 202.08 106.405 202.828 106.006 203.106C105.112 203.731 104.256 204.411 103.456 205.158C102.049 206.473 100.363 208.102 99.3896 209.661C99.6766 209.201 101.092 208.604 101.595 208.253C102.399 207.691 103.188 207.091 103.934 206.45C104.622 205.858 105.265 205.218 105.897 204.565C106.529 203.912 107.386 202.553 108.217 202.118C108.267 202.091 108.629 202.377 108.834 202.28C109.042 202.182 109.3 201.692 109.353 201.672C110.126 201.374 111.593 201.745 112.406 201.783C114.513 201.88 116.619 202.007 118.724 202.123C119.377 202.159 119.931 202.01 120.178 202.491C120.44 203.005 119.959 204.354 119.822 204.913C119.314 206.989 118.413 208.85 116.993 210.459C114.335 213.472 111.057 215.48 107.353 216.824C93.1688 221.97 78.0784 224.031 63.8982 218.678C58.0277 216.461 49.1865 212.501 50.2451 204.709Z" fill="#89C5CC"/>
<g opacity="0.6">
<path opacity="0.6" fill-rule="evenodd" clip-rule="evenodd" d="M699.711 447.152C709.361 512.476 475.337 555.085 273.908 525.349C72.4782 495.614 -19.9281 379.493 76.1907 317.62C172.31 255.746 690.061 381.828 699.711 447.152Z" fill="#AECFD3"/>
</g>
<path d="M288 19H145C140.582 19 137 22.5817 137 27V313C137 317.418 140.582 321 145 321H288C292.418 321 296 317.418 296 313V27C296 22.5817 292.418 19 288 19Z" fill="#323337"/>
<path d="M216 302C224.284 302 231 295.284 231 287C231 278.716 224.284 272 216 272C207.716 272 201 278.716 201 287C201 295.284 207.716 302 216 302Z" fill="white"/>
<path d="M203 39C204.105 39 205 38.1046 205 37C205 35.8954 204.105 35 203 35C201.895 35 201 35.8954 201 37C201 38.1046 201.895 39 203 39Z" fill="white"/>
<path d="M229 35H212C210.895 35 210 35.8954 210 37C210 38.1046 210.895 39 212 39H229C230.105 39 231 38.1046 231 37C231 35.8954 230.105 35 229 35Z" fill="white"/>
<path d="M278 47H155C152.791 47 151 48.7909 151 51V97C151 99.2091 152.791 101 155 101H278C280.209 101 282 99.2091 282 97V51C282 48.7909 280.209 47 278 47Z" fill="white"/>
<path d="M260 63.2H193C191.343 63.2 190 64.5431 190 66.2V68.3C190 69.9568 191.343 71.3 193 71.3H260C261.657 71.3 263 69.9568 263 68.3V66.2C263 64.5431 261.657 63.2 260 63.2Z" fill="#DDE3E9"/>
<path d="M236 76.7H193C191.343 76.7 190 78.0431 190 79.7V81.8C190 83.4568 191.343 84.8 193 84.8H236C237.657 84.8 239 83.4568 239 81.8V79.7C239 78.0431 237.657 76.7 236 76.7Z" fill="#DDE3E9"/>
<path d="M172 86C178.627 86 184 80.6274 184 74C184 67.3726 178.627 62 172 62C165.373 62 160 67.3726 160 74C160 80.6274 165.373 86 172 86Z" fill="#C5CFD6"/>
<path d="M278 109H155C152.791 109 151 110.791 151 113V147C151 149.209 152.791 151 155 151H278C280.209 151 282 149.209 282 147V113C282 110.791 280.209 109 278 109Z" fill="white"/>
<path d="M260 121.6H193C191.343 121.6 190 122.943 190 124.6V124.9C190 126.557 191.343 127.9 193 127.9H260C261.657 127.9 263 126.557 263 124.9V124.6C263 122.943 261.657 121.6 260 121.6Z" fill="#DDE3E9"/>
<path d="M236 132.1H193C191.343 132.1 190 133.443 190 135.1V135.4C190 137.057 191.343 138.4 193 138.4H236C237.657 138.4 239 137.057 239 135.4V135.1C239 133.443 237.657 132.1 236 132.1Z" fill="#DDE3E9"/>
<path d="M172 142C178.627 142 184 136.627 184 130C184 123.373 178.627 118 172 118C165.373 118 160 123.373 160 130C160 136.627 165.373 142 172 142Z" fill="#C5CFD6"/>
<path d="M278 159H155C152.791 159 151 160.791 151 163V197C151 199.209 152.791 201 155 201H278C280.209 201 282 199.209 282 197V163C282 160.791 280.209 159 278 159Z" fill="white"/>
<path d="M260 171.6H193C191.343 171.6 190 172.943 190 174.6V174.9C190 176.557 191.343 177.9 193 177.9H260C261.657 177.9 263 176.557 263 174.9V174.6C263 172.943 261.657 171.6 260 171.6Z" fill="#DDE3E9"/>
<path d="M236 182.1H193C191.343 182.1 190 183.443 190 185.1V185.4C190 187.057 191.343 188.4 193 188.4H236C237.657 188.4 239 187.057 239 185.4V185.1C239 183.443 237.657 182.1 236 182.1Z" fill="#DDE3E9"/>
<path d="M172 192C178.627 192 184 186.627 184 180C184 173.373 178.627 168 172 168C165.373 168 160 173.373 160 180C160 186.627 165.373 192 172 192Z" fill="#AFB9C5"/>
<path d="M278 209H155C152.791 209 151 210.791 151 213V247C151 249.209 152.791 251 155 251H278C280.209 251 282 249.209 282 247V213C282 210.791 280.209 209 278 209Z" fill="white"/>
<path d="M260 221.6H193C191.343 221.6 190 222.943 190 224.6V224.9C190 226.557 191.343 227.9 193 227.9H260C261.657 227.9 263 226.557 263 224.9V224.6C263 222.943 261.657 221.6 260 221.6Z" fill="#DDE3E9"/>
<path d="M236 232.1H193C191.343 232.1 190 233.443 190 235.1V235.4C190 237.057 191.343 238.4 193 238.4H236C237.657 238.4 239 237.057 239 235.4V235.1C239 233.443 237.657 232.1 236 232.1Z" fill="#DDE3E9"/>
<path d="M172 242C178.627 242 184 236.627 184 230C184 223.373 178.627 218 172 218C165.373 218 160 223.373 160 230C160 236.627 165.373 242 172 242Z" fill="#C5CFD6"/>
<path fill-rule="evenodd" clip-rule="evenodd" d="M167.14 263C165.815 263 164.494 263.027 163.171 263.095C162.162 263.148 160.621 262.939 159.768 263.568C158.881 264.221 158.942 265.557 159.081 266.501C159.813 271.493 161.6 275.919 165.339 279.456C171.096 284.901 177.695 287.668 185.504 288.9C190.99 289.766 196.054 288.564 200.092 284.663C203.043 290.139 205.281 296.199 206.404 302.315C206.958 305.333 207.127 308.315 207.03 311.388C206.967 313.356 206.859 315.32 206.648 317.279C206.556 318.13 206.122 319.418 206.455 320.223C206.846 321.167 208.165 321.259 208.757 320.453C209.25 319.783 209.16 318.466 209.261 317.673C209.429 316.355 209.584 315.036 209.695 313.712C209.876 311.569 210.009 309.42 210 307.268C209.977 302.435 208.902 297.583 207.432 292.995C204.612 284.192 200.037 276.369 192.921 270.231C188.545 266.457 183.537 264.929 177.856 264.108C174.318 263.597 170.723 263 167.14 263Z" fill="#89C5CC"/>
<path fill-rule="evenodd" clip-rule="evenodd" d="M187.571 298C173.272 298 163.642 309.524 159.089 321.502C157.372 326.016 156.97 330.974 156.308 335.714C156.096 337.236 156.175 339.554 155.557 340.909C155.333 341.401 154.819 341.577 155.065 342.247C155.214 342.652 155.505 342.901 155.944 342.981C156.843 343.147 158.115 342.167 158.886 341.781C165.282 338.573 169.484 333.613 172.912 327.545C175.038 323.784 177.194 319.879 178.456 315.75C179.227 313.227 179.676 310.571 179.94 307.954C180.044 306.923 180.144 305.868 180.138 304.832C180.132 303.803 179.653 303.259 179.309 302.364C184.08 300.558 189.466 300.066 194.299 301.937C198.769 303.668 202.482 307.013 204.561 311.216C205.101 312.308 205.518 313.46 205.821 314.636C206.02 315.406 206.029 316.404 206.398 317.1C207.29 318.788 209.168 317.66 208.988 316.089C208.485 311.708 205.979 307.309 202.775 304.263C198.734 300.421 193.258 298 187.571 298Z" fill="#89C5CC"/>
<path d="M354 45H211C206.582 45 203 48.5817 203 53V339C203 343.418 206.582 347 211 347H354C358.418 347 362 343.418 362 339V53C362 48.5817 358.418 45 354 45Z" fill="#868686"/>
<path d="M282 328C290.284 328 297 321.284 297 313C297 304.716 290.284 298 282 298C273.716 298 267 304.716 267 313C267 321.284 273.716 328 282 328Z" fill="white"/>
<path d="M269 65C270.105 65 271 64.1046 271 63C271 61.8954 270.105 61 269 61C267.895 61 267 61.8954 267 63C267 64.1046 267.895 65 269 65Z" fill="white"/>
<path d="M295 61H278C276.895 61 276 61.8954 276 63C276 64.1046 276.895 65 278 65H295C296.105 65 297 64.1046 297 63C297 61.8954 296.105 61 295 61Z" fill="white"/>
<path d="M344 73H221C218.791 73 217 74.7909 217 77V123C217 125.209 218.791 127 221 127H344C346.209 127 348 125.209 348 123V77C348 74.7909 346.209 73 344 73Z" fill="white"/>
<path d="M296 89.2H229C227.343 89.2 226 90.5431 226 92.2V94.3C226 95.9568 227.343 97.3 229 97.3H296C297.657 97.3 299 95.9568 299 94.3V92.2C299 90.5431 297.657 89.2 296 89.2Z" fill="#DDE3E9"/>
<path d="M272 102.7H229C227.343 102.7 226 104.043 226 105.7V107.8C226 109.457 227.343 110.8 229 110.8H272C273.657 110.8 275 109.457 275 107.8V105.7C275 104.043 273.657 102.7 272 102.7Z" fill="#DDE3E9"/>
<path d="M334 107C337.866 107 341 103.866 341 100C341 96.134 337.866 93 334 93C330.134 93 327 96.134 327 100C327 103.866 330.134 107 334 107Z" fill="#DDE3E9"/>
<path d="M334 103C335.657 103 337 101.657 337 100C337 98.3431 335.657 97 334 97C332.343 97 331 98.3431 331 100C331 101.657 332.343 103 334 103Z" fill="#F2F2F2"/>
<path d="M344 135H221C218.791 135 217 136.791 217 139V173C217 175.209 218.791 177 221 177H344C346.209 177 348 175.209 348 173V139C348 136.791 346.209 135 344 135Z" fill="white"/>
<path d="M326 147.6H259C257.343 147.6 256 148.943 256 150.6V150.9C256 152.557 257.343 153.9 259 153.9H326C327.657 153.9 329 152.557 329 150.9V150.6C329 148.943 327.657 147.6 326 147.6Z" fill="#DDE3E9"/>
<path d="M302 158.1H259C257.343 158.1 256 159.443 256 161.1V161.4C256 163.057 257.343 164.4 259 164.4H302C303.657 164.4 305 163.057 305 161.4V161.1C305 159.443 303.657 158.1 302 158.1Z" fill="#DDE3E9"/>
<path d="M238 168C244.627 168 250 162.627 250 156C250 149.373 244.627 144 238 144C231.373 144 226 149.373 226 156C226 162.627 231.373 168 238 168Z" fill="#C5CFD6"/>
<path d="M344 185H221C218.791 185 217 186.791 217 189V223C217 225.209 218.791 227 221 227H344C346.209 227 348 225.209 348 223V189C348 186.791 346.209 185 344 185Z" fill="white"/>
<path d="M296 197.6H229C227.343 197.6 226 198.943 226 200.6V200.9C226 202.557 227.343 203.9 229 203.9H296C297.657 203.9 299 202.557 299 200.9V200.6C299 198.943 297.657 197.6 296 197.6Z" fill="#DDE3E9"/>
<path d="M272 208.1H229C227.343 208.1 226 209.443 226 211.1V211.4C226 213.057 227.343 214.4 229 214.4H272C273.657 214.4 275 213.057 275 211.4V211.1C275 209.443 273.657 208.1 272 208.1Z" fill="#AFB9C5"/>
<path d="M334 213C337.866 213 341 209.866 341 206C341 202.134 337.866 199 334 199C330.134 199 327 202.134 327 206C327 209.866 330.134 213 334 213Z" fill="#DDE3E9"/>
<path d="M334 209C335.657 209 337 207.657 337 206C337 204.343 335.657 203 334 203C332.343 203 331 204.343 331 206C331 207.657 332.343 209 334 209Z" fill="#F2F2F2"/>
<path d="M344 235H221C218.791 235 217 236.791 217 239V273C217 275.209 218.791 277 221 277H344C346.209 277 348 275.209 348 273V239C348 236.791 346.209 235 344 235Z" fill="white"/>
<path d="M326 247.6H259C257.343 247.6 256 248.943 256 250.6V250.9C256 252.557 257.343 253.9 259 253.9H326C327.657 253.9 329 252.557 329 250.9V250.6C329 248.943 327.657 247.6 326 247.6Z" fill="#DDE3E9"/>
<path d="M302 258.1H259C257.343 258.1 256 259.443 256 261.1V261.4C256 263.057 257.343 264.4 259 264.4H302C303.657 264.4 305 263.057 305 261.4V261.1C305 259.443 303.657 258.1 302 258.1Z" fill="#DDE3E9"/>
<path d="M238 268C244.627 268 250 262.627 250 256C250 249.373 244.627 244 238 244C231.373 244 226 249.373 226 256C226 262.627 231.373 268 238 268Z" fill="#C5CFD6"/>
<path d="M596 70H277C272.582 70 269 73.5817 269 78V408C269 412.418 272.582 416 277 416H596C600.418 416 604 412.418 604 408V78C604 73.5817 600.418 70 596 70Z" fill="#323337"/>
<path d="M580 113H526C521.582 113 518 116.582 518 121V186C518 190.418 521.582 194 526 194H580C584.418 194 588 190.418 588 186V121C588 116.582 584.418 113 580 113Z" fill="white"/>
<path d="M553 160C561.837 160 569 152.837 569 144C569 135.163 561.837 128 553 128C544.163 128 537 135.163 537 144C537 152.837 544.163 160 553 160Z" fill="#323337"/>
<path d="M575 164H531C529.343 164 528 165.343 528 167C528 168.657 529.343 170 531 170H575C576.657 170 578 168.657 578 167C578 165.343 576.657 164 575 164Z" fill="#323337"/>
<path d="M567 174H539C537.343 174 536 175.343 536 177C536 178.657 537.343 180 539 180H567C568.657 180 570 178.657 570 177C570 175.343 568.657 174 567 174Z" fill="#323337"/>
<path fill-rule="evenodd" clip-rule="evenodd" d="M277 70H596C600.418 70 604 73.5817 604 78V97H269V78C269 73.5817 272.582 70 277 70Z" fill="#323337"/>
<path d="M282 88C284.209 88 286 86.2091 286 84C286 81.7909 284.209 80 282 80C279.791 80 278 81.7909 278 84C278 86.2091 279.791 88 282 88Z" fill="#F2F2F2"/>
<path d="M294 88C296.209 88 298 86.2091 298 84C298 81.7909 296.209 80 294 80C291.791 80 290 81.7909 290 84C290 86.2091 291.791 88 294 88Z" fill="#F2F2F2"/>
<path d="M306 88C308.209 88 310 86.2091 310 84C310 81.7909 308.209 80 306 80C303.791 80 302 81.7909 302 84C302 86.2091 303.791 88 306 88Z" fill="#F2F2F2"/>
<path d="M580 202H526C521.582 202 518 205.582 518 210V388C518 392.418 521.582 396 526 396H580C584.418 396 588 392.418 588 388V210C588 205.582 584.418 202 580 202Z" fill="white"/>
<path d="M566 220H540C537.791 220 536 221.791 536 224V242C536 244.209 537.791 246 540 246H566C568.209 246 570 244.209 570 242V224C570 221.791 568.209 220 566 220Z" fill="#DDE3E9"/>
<path d="M566 254H540C537.791 254 536 255.791 536 258V275C536 277.209 537.791 279 540 279H566C568.209 279 570 277.209 570 275V258C570 255.791 568.209 254 566 254Z" fill="#89C5CC"/>
<path d="M566 287H540C537.791 287 536 288.791 536 291V308C536 310.209 537.791 312 540 312H566C568.209 312 570 310.209 570 308V291C570 288.791 568.209 287 566 287Z" fill="#AECFD3"/>
<path d="M566 353H540C537.791 353 536 354.791 536 357V374C536 376.209 537.791 378 540 378H566C568.209 378 570 376.209 570 374V357C570 354.791 568.209 353 566 353Z" fill="#AFB9C5"/>
<path d="M566 320H540C537.791 320 536 321.791 536 324V341C536 343.209 537.791 345 540 345H566C568.209 345 570 343.209 570 341V324C570 321.791 568.209 320 566 320Z" fill="#CDF0F4"/>
<path d="M506 114H289C286.791 114 285 115.791 285 118V157C285 159.209 286.791 161 289 161H506C508.209 161 510 159.209 510 157V118C510 115.791 508.209 114 506 114Z" fill="white"/>
<path d="M458 128.1H297C295.343 128.1 294 129.443 294 131.1V132.15C294 133.807 295.343 135.15 297 135.15H458C459.657 135.15 461 133.807 461 132.15V131.1C461 129.443 459.657 128.1 458 128.1Z" fill="#DDE3E9"/>
<path d="M403.096 139.85H297C295.343 139.85 294 141.193 294 142.85V143.9C294 145.557 295.343 146.9 297 146.9H403.096C404.753 146.9 406.096 145.557 406.096 143.9V142.85C406.096 141.193 404.753 139.85 403.096 139.85Z" fill="#DDE3E9"/>
<path d="M485.954 144.5C489.82 144.5 492.954 141.366 492.954 137.5C492.954 133.634 489.82 130.5 485.954 130.5C482.088 130.5 478.954 133.634 478.954 137.5C478.954 141.366 482.088 144.5 485.954 144.5Z" fill="#DDE3E9"/>
<path d="M485.954 140.5C487.611 140.5 488.954 139.157 488.954 137.5C488.954 135.843 487.611 134.5 485.954 134.5C484.297 134.5 482.954 135.843 482.954 137.5C482.954 139.157 484.297 140.5 485.954 140.5Z" fill="#F2F2F2"/>
<path d="M506 169H289C286.791 169 285 170.791 285 173V204C285 206.209 286.791 208 289 208H506C508.209 208 510 206.209 510 204V173C510 170.791 508.209 169 506 169Z" fill="white"/>
<path d="M458.075 180.7H296.925C295.31 180.7 294 182.01 294 183.625C294 185.24 295.31 186.55 296.925 186.55H458.075C459.69 186.55 461 185.24 461 183.625C461 182.01 459.69 180.7 458.075 180.7Z" fill="#DDE3E9"/>
<path d="M403.171 190.45H296.925C295.31 190.45 294 191.76 294 193.375C294 194.99 295.31 196.3 296.925 196.3H403.171C404.786 196.3 406.096 194.99 406.096 193.375C406.096 191.76 404.786 190.45 403.171 190.45Z" fill="#DDE3E9"/>
<path d="M485.954 195.5C489.82 195.5 492.954 192.366 492.954 188.5C492.954 184.634 489.82 181.5 485.954 181.5C482.088 181.5 478.954 184.634 478.954 188.5C478.954 192.366 482.088 195.5 485.954 195.5Z" fill="#DDE3E9"/>
<path d="M485.954 191.5C487.611 191.5 488.954 190.157 488.954 188.5C488.954 186.843 487.611 185.5 485.954 185.5C484.297 185.5 482.954 186.843 482.954 188.5C482.954 190.157 484.297 191.5 485.954 191.5Z" fill="#F2F2F2"/>
<path d="M506 216H289C286.791 216 285 217.791 285 220V251C285 253.209 286.791 255 289 255H506C508.209 255 510 253.209 510 251V220C510 217.791 508.209 216 506 216Z" fill="white"/>
<path d="M458.075 227.7H296.925C295.31 227.7 294 229.01 294 230.625C294 232.24 295.31 233.55 296.925 233.55H458.075C459.69 233.55 461 232.24 461 230.625C461 229.01 459.69 227.7 458.075 227.7Z" fill="#DDE3E9"/>
<path d="M403.171 237.45H296.925C295.31 237.45 294 238.76 294 240.375C294 241.99 295.31 243.3 296.925 243.3H403.171C404.786 243.3 406.096 241.99 406.096 240.375C406.096 238.76 404.786 237.45 403.171 237.45Z" fill="#DDE3E9"/>
<path d="M485.954 242.5C489.82 242.5 492.954 239.366 492.954 235.5C492.954 231.634 489.82 228.5 485.954 228.5C482.088 228.5 478.954 231.634 478.954 235.5C478.954 239.366 482.088 242.5 485.954 242.5Z" fill="#DDE3E9"/>
<path d="M485.954 238.5C487.611 238.5 488.954 237.157 488.954 235.5C488.954 233.843 487.611 232.5 485.954 232.5C484.297 232.5 482.954 233.843 482.954 235.5C482.954 237.157 484.297 238.5 485.954 238.5Z" fill="#AFB9C5"/>
<path d="M506 357H289C286.791 357 285 358.791 285 361V392C285 394.209 286.791 396 289 396H506C508.209 396 510 394.209 510 392V361C510 358.791 508.209 357 506 357Z" fill="white"/>
<path d="M458.075 368.7H296.925C295.31 368.7 294 370.01 294 371.625C294 373.24 295.31 374.55 296.925 374.55H458.075C459.69 374.55 461 373.24 461 371.625C461 370.01 459.69 368.7 458.075 368.7Z" fill="#DDE3E9"/>
<path d="M403.171 378.45H296.925C295.31 378.45 294 379.76 294 381.375C294 382.99 295.31 384.3 296.925 384.3H403.171C404.786 384.3 406.096 382.99 406.096 381.375C406.096 379.76 404.786 378.45 403.171 378.45Z" fill="#DDE3E9"/>
<path d="M485.954 383.5C489.82 383.5 492.954 380.366 492.954 376.5C492.954 372.634 489.82 369.5 485.954 369.5C482.088 369.5 478.954 372.634 478.954 376.5C478.954 380.366 482.088 383.5 485.954 383.5Z" fill="#DDE3E9"/>
<path d="M485.954 379.5C487.611 379.5 488.954 378.157 488.954 376.5C488.954 374.843 487.611 373.5 485.954 373.5C484.297 373.5 482.954 374.843 482.954 376.5C482.954 378.157 484.297 379.5 485.954 379.5Z" fill="#F2F2F2"/>
<path d="M506 310H289C286.791 310 285 311.791 285 314V345C285 347.209 286.791 349 289 349H506C508.209 349 510 347.209 510 345V314C510 311.791 508.209 310 506 310Z" fill="white"/>
<path d="M458.075 321.7H296.925C295.31 321.7 294 323.01 294 324.625C294 326.24 295.31 327.55 296.925 327.55H458.075C459.69 327.55 461 326.24 461 324.625C461 323.01 459.69 321.7 458.075 321.7Z" fill="#DDE3E9"/>
<path d="M403.171 331.45H296.925C295.31 331.45 294 332.76 294 334.375C294 335.99 295.31 337.3 296.925 337.3H403.171C404.786 337.3 406.096 335.99 406.096 334.375C406.096 332.76 404.786 331.45 403.171 331.45Z" fill="#DDE3E9"/>
<path d="M485.954 336.5C489.82 336.5 492.954 333.366 492.954 329.5C492.954 325.634 489.82 322.5 485.954 322.5C482.088 322.5 478.954 325.634 478.954 329.5C478.954 333.366 482.088 336.5 485.954 336.5Z" fill="#DDE3E9"/>
<path d="M485.954 332.5C487.611 332.5 488.954 331.157 488.954 329.5C488.954 327.843 487.611 326.5 485.954 326.5C484.297 326.5 482.954 327.843 482.954 329.5C482.954 331.157 484.297 332.5 485.954 332.5Z" fill="#F2F2F2"/>
<path d="M506 263H289C286.791 263 285 264.791 285 267V298C285 300.209 286.791 302 289 302H506C508.209 302 510 300.209 510 298V267C510 264.791 508.209 263 506 263Z" fill="white"/>
<path d="M458.075 274.7H296.925C295.31 274.7 294 276.01 294 277.625C294 279.24 295.31 280.55 296.925 280.55H458.075C459.69 280.55 461 279.24 461 277.625C461 276.01 459.69 274.7 458.075 274.7Z" fill="#DDE3E9"/>
<path d="M403.171 284.45H296.925C295.31 284.45 294 285.76 294 287.375C294 288.99 295.31 290.3 296.925 290.3H403.171C404.786 290.3 406.096 288.99 406.096 287.375C406.096 285.76 404.786 284.45 403.171 284.45Z" fill="#DDE3E9"/>
<path d="M485.954 289.5C489.82 289.5 492.954 286.366 492.954 282.5C492.954 278.634 489.82 275.5 485.954 275.5C482.088 275.5 478.954 278.634 478.954 282.5C478.954 286.366 482.088 289.5 485.954 289.5Z" fill="#DDE3E9"/>
<path d="M485.954 285.5C487.611 285.5 488.954 284.157 488.954 282.5C488.954 280.843 487.611 279.5 485.954 279.5C484.297 279.5 482.954 280.843 482.954 282.5C482.954 284.157 484.297 285.5 485.954 285.5Z" fill="#F2F2F2"/>
<path fill-rule="evenodd" clip-rule="evenodd" d="M686.986 240.376C683.041 237.701 677.796 237 673.076 237C654.64 237 637.311 243.84 622.341 254.032C614.138 259.616 606.8 266.728 600.322 274.132C596.582 278.407 593.248 283.03 590.887 288.173C589.294 291.644 588.201 295.261 587.46 298.991C586.557 303.537 585.839 308.175 585.515 312.797C585.387 314.617 584.33 324.274 587.356 324.438C587.338 324.676 587.334 324.903 587.353 325.106C580.782 335.38 576.723 347.42 572.958 358.835C569.683 368.769 566.764 378.786 564.87 389.063C562.375 402.592 560.737 416.326 559.958 430.05C559.791 432.999 559.676 435.95 559.577 438.903C559.493 441.422 559.408 443.941 559.325 446.461C559.233 449.284 558.736 452.534 559.185 455.34C559.576 457.784 561.691 457.414 561.785 454.982C561.898 452.045 561.879 449.102 562.008 446.163C562.179 442.262 562.355 438.361 562.546 434.461C563.875 407.369 568.86 380.675 578.061 355.084C581.785 344.728 586.051 334.925 591.535 325.345C596.356 316.922 602.156 308.767 608.084 301.173C613.845 293.792 619.836 286.583 626.895 280.33C632.624 275.256 638.926 270.835 645.404 266.722C653.631 261.498 661.843 256.401 670.755 252.391C675.388 250.307 680.108 248.441 684.777 246.44C685.617 246.081 686.517 245.732 687.325 245.315C690.02 243.925 689.133 241.832 686.986 240.376Z" fill="#C1DEE2"/>
<path fill-rule="evenodd" clip-rule="evenodd" d="M612.818 335C620.295 335 626.949 335.972 633.838 338.943C639.785 341.508 645.205 344.903 650.467 348.599C657.868 353.798 663.698 359.848 667.779 367.865C670.217 372.654 672.006 379.431 670.368 384.655C668.44 390.807 663.144 395.939 656.169 394.855C651.856 394.185 647.903 391.33 644.625 388.643C640.703 385.428 637.564 381.563 634.972 377.27C630.744 370.267 628.26 362.351 624.668 355.033C622.964 351.56 621.317 348.063 619.275 344.762C618.265 343.128 617.189 341.509 615.656 340.294C614.836 339.644 611.377 338.52 612.7 337.061C593.31 337.315 576.132 352.207 572.409 370.641C572.063 372.359 571.792 374.091 571.505 375.82C571.325 376.911 571.398 380.937 570.422 381.634C568.27 383.172 569.174 378.499 569.267 377.826C569.505 376.087 569.76 374.35 570.027 372.615C571.481 363.181 575.681 354.411 582.685 347.683C590.694 339.99 601.501 335 612.818 335Z" fill="#89C5CC"/>
<path fill-rule="evenodd" clip-rule="evenodd" d="M73.9379 311.736C92.6043 343.052 114.345 373.374 127.401 407.613C126.875 403.577 126.317 399.545 125.692 395.52C122.38 374.179 118.262 352.994 113.936 331.835C111.733 321.062 109.402 310.327 107.012 299.594C105.727 293.829 104.457 288.061 103.145 282.302C102.827 280.906 102.554 278.469 102.157 276C114.845 317.637 127.081 359.305 136.031 401.942C137.205 407.538 138.205 413.124 139.024 418.7C139.304 417.428 139.58 416.156 139.881 414.887C143.503 399.68 148.935 384.594 155.403 370.374C158.495 363.575 162.046 356.924 166.228 350.726C168.836 346.863 174.986 342.271 177.364 338.314C164.355 362.176 159.657 392.032 152.145 417.973C150.312 424.304 148.467 430.624 146.659 436.955C157.987 414.237 175.563 395.571 200 387.483C170.42 407.027 152.678 441.254 140.722 476.26C140.683 476.675 140.636 477.09 140.595 477.506C144.114 470.829 148.545 464.789 154.551 460.56C167.407 451.504 181.667 454.142 194.137 461.91C184.35 455.689 166.663 461.354 158.428 467.677C152.533 472.203 147.495 478.275 143.12 484.2C142.072 485.62 140.641 487.277 139.13 489.044C137.012 502.795 133.56 516.452 128.672 530C129.479 526.111 128.896 519.892 129.12 516.993C129.144 516.679 129.164 516.365 129.188 516.053C128.445 519.019 127.727 521.951 127.036 524.837C128.41 519.331 129.156 513.583 129.739 507.776C129.889 505.281 130.036 502.785 130.19 500.29C130.141 495.553 129.946 490.799 129.616 486.036C128.447 481.408 127.137 477.042 126.056 473.411C122.159 460.31 116.444 447.76 109.411 436.051C102.994 425.366 95.3124 415.688 86.4448 406.935C81.6643 402.217 76.6614 397.725 71.7289 393.17C69.9453 391.523 66.7572 387.474 64 385.363C84.0805 396.434 104.749 408.41 119.398 426.248C117.68 419.653 115.815 413.151 113.842 406.78C103.831 374.454 91.1913 340.953 73.9379 311.736Z" fill="#89C5CC"/>
<path fill-rule="evenodd" clip-rule="evenodd" d="M94 489C94 524.899 96.8428 554 135 554C173.157 554 176 524.899 176 489" fill="#AFB9C5"/>
<path fill-rule="evenodd" clip-rule="evenodd" d="M677.766 310.179C675.845 312.219 673.123 313.5 670.095 313.5C664.278 313.5 659.562 308.799 659.562 303C659.562 297.201 664.278 292.5 670.095 292.5V273C653.546 273 640 286.503 640 303C640 319.497 653.546 333 670.095 333C678.788 333 686.645 329.334 692 323.502L677.766 310.179Z" fill="#B2DADF"/>
<path fill-rule="evenodd" clip-rule="evenodd" d="M670 273V292.5C675.799 292.5 680.5 297.201 680.5 303H700C700 286.503 686.497 273 670 273Z" fill="#89C5CC"/>
<path fill-rule="evenodd" clip-rule="evenodd" d="M680.097 303C680.097 306.407 678.492 309.435 676 311.391L688.262 327C695.399 321.412 700 312.749 700 303H680.097Z" fill="#AECFD3"/>
<path fill-rule="evenodd" clip-rule="evenodd" d="M123.007 51.9863C123.003 51.9963 122.999 52.0063 122.993 52.0183C122.999 52.0083 123.007 51.9683 123.007 51.9863Z" fill="#C5CFD6"/>
<path fill-rule="evenodd" clip-rule="evenodd" d="M122.998 52.0015C122.998 52.0035 122.996 52.0075 122.996 52.0115C122.996 52.0015 123.014 51.9715 122.998 52.0015Z" fill="#C5CFD6"/>
<path fill-rule="evenodd" clip-rule="evenodd" d="M123.067 51.8323C123.053 51.8723 123.035 51.9103 123.019 51.9503C123.027 51.9303 123.035 51.9143 123.043 51.8943C122.835 52.4143 122.967 52.0763 123.067 51.8323Z" fill="#C5CFD6"/>
<path fill-rule="evenodd" clip-rule="evenodd" d="M123.022 51.9526C123.014 51.9706 123.006 51.9906 122.998 52.0086C122.94 52.1206 123.022 51.9526 123.022 51.9526Z" fill="#C5CFD6"/>
<path fill-rule="evenodd" clip-rule="evenodd" d="M122.999 52.002C122.999 52 122.999 52 123.001 51.998C122.999 52 122.999 52 122.999 52.002Z" fill="#C5CFD6"/>
<path fill-rule="evenodd" clip-rule="evenodd" d="M122.99 52.0163C122.978 52.0403 123.046 51.9243 122.99 52.0163V52.0163Z" fill="#C5CFD6"/>
<path fill-rule="evenodd" clip-rule="evenodd" d="M122.998 52.002L123.002 51.998C123 52 123 52.002 122.998 52.002Z" fill="#C5CFD6"/>
<path d="M166 0H79C76.7909 0 75 1.79086 75 4V59C75 61.2091 76.7909 63 79 63H166C168.209 63 170 61.2091 170 59V4C170 1.79086 168.209 0 166 0Z" fill="#DDE3E9"/>
<path fill-rule="evenodd" clip-rule="evenodd" d="M111 18L83 63H139L111 18Z" fill="#AFB9C5"/>
<path fill-rule="evenodd" clip-rule="evenodd" d="M138.5 30L114 63H163L138.5 30Z" fill="#C5CFD6"/>
<path d="M149 30C153.971 30 158 25.9706 158 21C158 16.0294 153.971 12 149 12C144.029 12 140 16.0294 140 21C140 25.9706 144.029 30 149 30Z" fill="white"/>
<path fill-rule="evenodd" clip-rule="evenodd" d="M599.993 478.986C599.997 478.996 600.001 479.006 600.007 479.018C600.001 479.008 599.993 478.968 599.993 478.986Z" fill="#C5CFD6"/>
<path fill-rule="evenodd" clip-rule="evenodd" d="M600.002 479.002C600.002 479.004 600.004 479.008 600.004 479.012C600.004 479.002 599.986 478.972 600.002 479.002Z" fill="#C5CFD6"/>
<path fill-rule="evenodd" clip-rule="evenodd" d="M599.933 478.832C599.947 478.872 599.965 478.91 599.981 478.95C599.973 478.93 599.965 478.914 599.957 478.894C600.165 479.414 600.033 479.076 599.933 478.832Z" fill="#C5CFD6"/>
<path fill-rule="evenodd" clip-rule="evenodd" d="M599.978 478.953C599.986 478.971 599.994 478.991 600.002 479.009C600.06 479.121 599.978 478.953 599.978 478.953Z" fill="#C5CFD6"/>
<path fill-rule="evenodd" clip-rule="evenodd" d="M600.001 479.002C600.001 479 600.001 479 599.999 478.998C600.001 479 600.001 479 600.001 479.002Z" fill="#C5CFD6"/>
<path fill-rule="evenodd" clip-rule="evenodd" d="M600.01 479.016C600.022 479.04 599.954 478.924 600.01 479.016V479.016Z" fill="#C5CFD6"/>
<path fill-rule="evenodd" clip-rule="evenodd" d="M600.002 479.002L599.998 478.998C600 479 600 479.002 600.002 479.002Z" fill="#C5CFD6"/>
<path d="M533 402H667C669.209 402 671 403.791 671 406V492C671 494.209 669.209 496 667 496H533C530.791 496 529 494.209 529 492V406C529 403.791 530.791 402 533 402Z" fill="#868686"/>
<path fill-rule="evenodd" clip-rule="evenodd" d="M618.274 429L659.329 496H577.219L618.274 429Z" fill="#AECFD3"/>
<path fill-rule="evenodd" clip-rule="evenodd" d="M575.944 446.947L612.239 496H539.649L575.944 446.947Z" fill="#C5CFD6"/>
<path d="M560.5 447C553.044 447 547 440.956 547 433.5C547 426.044 553.044 420 560.5 420C567.956 420 574 426.044 574 433.5C574 440.956 567.956 447 560.5 447Z" fill="white"/>
</svg>
