<svg width="691" height="610" viewBox="0 0 691 610" fill="none" xmlns="http://www.w3.org/2000/svg">
<path d="M542 191C571.271 191 595 167.271 595 138C595 108.729 571.271 85 542 85C512.729 85 489 108.729 489 138C489 167.271 512.729 191 542 191Z" fill="#F2F2F2"/>
<path d="M542 99C543.657 99 545 97.6569 545 96C545 94.3431 543.657 93 542 93C540.343 93 539 94.3431 539 96C539 97.6569 540.343 99 542 99Z" fill="black" fill-opacity="0.1"/>
<path d="M500 141C501.657 141 503 139.657 503 138C503 136.343 501.657 135 500 135C498.343 135 497 136.343 497 138C497 139.657 498.343 141 500 141Z" fill="black" fill-opacity="0.1"/>
<path d="M584 141C585.657 141 587 139.657 587 138C587 136.343 585.657 135 584 135C582.343 135 581 136.343 581 138C581 139.657 582.343 141 584 141Z" fill="black" fill-opacity="0.1"/>
<path d="M542 183C543.657 183 545 181.657 545 180C545 178.343 543.657 177 542 177C540.343 177 539 178.343 539 180C539 181.657 540.343 183 542 183Z" fill="black" fill-opacity="0.1"/>
<path fill-rule="evenodd" clip-rule="evenodd" d="M542 102L544 137H540L542 102Z" fill="#AFB9C5"/>
<path fill-rule="evenodd" clip-rule="evenodd" d="M559.698 155.698L541.314 140.142L544.142 137.314L559.698 155.698Z" fill="#AFB9C5"/>
<path d="M542 142C544.209 142 546 140.209 546 138C546 135.791 544.209 134 542 134C539.791 134 538 135.791 538 138C538 140.209 539.791 142 542 142Z" fill="#C5CFD6"/>
<g opacity="0.345889">
<path opacity="0.345889" fill-rule="evenodd" clip-rule="evenodd" d="M485.794 416.385C478.899 339.336 108.964 190.624 40.2873 263.603C-28.3897 336.582 37.6347 473.545 181.556 508.617C325.478 543.69 492.688 493.434 485.794 416.385Z" fill="#F2F2F2"/>
<path opacity="0.345889" fill-rule="evenodd" clip-rule="evenodd" d="M257.144 466.448C263.32 400.992 594.692 274.655 656.21 336.654C717.728 398.652 702.157 529.059 573.238 558.854C444.319 588.65 250.968 531.904 257.144 466.448Z" fill="#DDE3E9"/>
</g>
<path d="M58.5 209.673C81.9721 209.673 101 199.6 101 187.173C101 174.747 81.9721 164.673 58.5 164.673C35.0279 164.673 16 174.747 16 187.173C16 199.6 35.0279 209.673 58.5 209.673Z" fill="#F2F2F2"/>
<path fill-rule="evenodd" clip-rule="evenodd" d="M108 202.673C108 175.059 85.8381 152.673 58.5 152.673C31.1619 152.673 9 175.059 9 202.673" fill="#DDE3E9"/>
<path d="M61 0H56V160H61V0Z" fill="#DDE3E9"/>
<g opacity="0.7">
<g opacity="0.7">
<path opacity="0.7" d="M136 159C153.545 159 167.768 150.871 167.768 140.842C167.768 130.814 153.545 122.684 136 122.684C118.455 122.684 104.232 130.814 104.232 140.842C104.232 150.871 118.455 159 136 159Z" fill="#F2F2F2"/>
<path opacity="0.7" fill-rule="evenodd" clip-rule="evenodd" d="M173 153.351C173 131.066 156.435 113 136 113C115.565 113 99 131.066 99 153.351" fill="#DDE3E9"/>
</g>
<path opacity="0.7" d="M139 0H134V136H139V0Z" fill="#DDE3E9"/>
</g>
<path d="M568 234.236L586.568 215.656C589.691 212.531 594.757 212.53 597.881 215.653C597.882 215.654 597.883 215.655 597.884 215.656L647.316 265.113C650.315 268.113 652 272.182 652 276.424V604" stroke="#CBCBCB" stroke-width="8"/>
<path d="M678 603H625C623.343 603 622 604.343 622 606V607C622 608.657 623.343 610 625 610H678C679.657 610 681 608.657 681 607V606C681 604.343 679.657 603 678 603Z" fill="#AFB9C5"/>
<path fill-rule="evenodd" clip-rule="evenodd" d="M579.168 223.335C592.055 236.222 592.055 257.116 579.168 270.004L559.369 289.803L512.7 243.134L532.499 223.335C545.386 210.447 566.28 210.447 579.168 223.335Z" fill="#C5CFD6"/>
<path d="M532.228 270.527C545.115 283.414 557.62 291.804 560.159 289.265C562.697 286.727 554.308 274.222 541.42 261.335C528.533 248.447 516.028 240.058 513.49 242.596C510.951 245.135 519.341 257.64 532.228 270.527Z" fill="#F2F2F2"/>
<path fill-rule="evenodd" clip-rule="evenodd" d="M47.258 372.173C50.1225 371.823 53.1799 371.947 55.8439 373.077C61.5085 375.482 63.1187 382.174 63.041 387.614C62.9573 393.468 61.7141 399.863 66.1651 404.58C68.2112 406.748 70.7563 408.408 72.7654 410.617C74.9122 412.977 76.5966 415.677 77.8438 418.577C80.1339 423.903 81.2578 430.167 79.1637 435.754C77.3199 440.674 72.6811 445.114 73.6834 450.708C74.729 456.543 80.6122 461.004 84.2904 465.351C88.4532 470.269 92.2859 476.556 92.9155 483.006C93.5193 489.188 90.8284 495.44 86.6988 500.113C78.4477 509.451 66.0452 514.028 53.5396 514C48.23 513.988 42.2186 513.748 37.6366 510.895C36.2204 510.013 35.4733 509.023 34.6315 507.648C33.8767 506.414 32.8796 505.612 31.7255 504.739C29.1899 502.822 27.3587 500.239 26.1901 497.347C21.6522 486.114 25.2792 472.218 31.6312 462.243C33.1364 459.88 34.3686 457.605 33.6374 454.789C32.8744 451.848 30.999 449.196 29.3403 446.669C27.7011 444.17 25.8299 441.787 24.5488 439.087C23.207 436.257 22.8292 433.294 23.0662 430.198C23.5118 424.381 26.0227 419.013 29.5777 414.336C33.0017 409.83 37.0221 405.518 37.0311 399.615C37.041 393.357 32.8577 387.791 34.6399 381.429C35.3778 378.795 36.86 376.092 39.2486 374.513C41.5393 372.998 44.5639 372.502 47.258 372.173Z" fill="#DDE3E9"/>
<path fill-rule="evenodd" clip-rule="evenodd" d="M45.3862 382.176C45.4399 381.336 46.4367 380.832 47.2215 381.051C48.2545 381.34 48.2346 382.305 48.2073 383.165C48.1237 385.808 48.5063 388.377 49.1417 390.942C50.4622 396.274 52.9027 401.186 54.8362 406.308C56.768 411.425 57.6748 416.709 56.5416 422.124C55.4732 427.23 53.7948 432.203 52.7015 437.315C51.7378 441.821 50.7123 446.573 52.1799 451.067C53.5921 455.393 56.7142 458.916 58.9625 462.825C63.6165 470.918 65.6813 479.896 65.9574 489.135C66.0854 493.425 65.9702 497.755 64.9749 501.963C64.402 504.386 63.6322 507.66 61.5559 509.333C60.5985 510.105 58.961 510.371 58.1552 509.229C57.3987 508.158 58.0624 506.499 58.3025 505.357C59.3427 500.413 59.5519 495.361 59.3029 490.342C59.0619 485.48 58.4874 480.626 56.9572 475.982C55.5369 471.673 53.3792 467.802 50.8398 464.032C48.2521 460.191 45.562 456.341 44.4928 451.789C43.4065 447.166 44.289 442.462 45.4691 437.927C46.7171 433.131 48.3518 428.472 50.0417 423.805C51.6886 419.258 52.2724 414.955 51.3632 410.196C49.5672 400.794 44.7598 391.968 45.3862 382.176Z" fill="#C5CFD6"/>
<path fill-rule="evenodd" clip-rule="evenodd" d="M122.892 383.582C126.437 384.659 129.958 386.395 132.485 389.118C137.858 394.909 136.209 403.661 133.243 410.053C130.05 416.933 125.212 423.849 127.94 431.743C129.193 435.372 131.301 438.659 132.49 442.316C133.761 446.224 134.309 450.294 134.239 454.372C134.11 461.862 132.118 469.855 126.708 475.373C121.945 480.232 114.158 483.07 112.377 490.206C110.518 497.651 115.061 505.988 117.078 513.041C119.36 521.024 120.533 530.453 117.862 538.409C115.303 546.034 108.842 552.028 101.528 555.406C86.9152 562.156 69.9487 561.117 55.2958 554.578C49.0748 551.801 42.1506 548.391 38.2845 542.633C37.0897 540.853 36.7364 539.294 36.476 537.23C36.2426 535.378 35.4972 533.911 34.6048 532.278C32.644 528.692 31.8618 524.684 32.0198 520.656C32.6345 505.011 44.2336 490.464 56.9562 481.972C59.9708 479.96 62.6181 477.912 63.2494 474.2C63.9086 470.325 63.1108 466.213 62.5012 462.361C61.899 458.554 60.9638 454.763 60.8888 450.902C60.8105 446.858 61.9334 443.157 63.8482 439.619C67.4453 432.972 73.2275 427.93 79.8696 424.247C86.2673 420.7 93.2616 417.692 96.3928 410.715C99.7118 403.32 97.7474 394.561 103.2 387.964C105.458 385.233 108.625 382.807 112.262 382.182C115.749 381.583 119.558 382.57 122.892 383.582Z" fill="#DDE3E9"/>
<path fill-rule="evenodd" clip-rule="evenodd" d="M115.651 395.811C116.154 394.844 117.584 394.769 118.387 395.44C119.443 396.324 118.914 397.456 118.432 398.46C116.95 401.547 116.052 404.789 115.452 408.159C114.204 415.166 114.485 422.262 114.063 429.341C113.642 436.414 111.935 443.147 107.774 448.965C103.85 454.452 99.2832 459.462 95.3274 464.943C91.8408 469.773 88.1533 474.863 87.5156 480.954C86.9012 486.817 88.7069 492.626 89.2882 498.434C90.4919 510.457 88.2042 522.171 83.6884 533.257C81.5911 538.405 79.1887 543.472 75.8211 547.933C73.8824 550.503 71.2673 553.977 67.9634 554.869C66.4399 555.281 64.3855 554.739 64.0415 552.964C63.7181 551.298 65.3628 549.682 66.2417 548.455C70.047 543.146 72.9376 537.273 75.2753 531.198C77.5399 525.314 79.4103 519.265 80.0529 512.963C80.6491 507.116 80.1532 501.401 79.1581 495.606C78.1443 489.701 77.0149 483.731 78.1486 477.781C79.2996 471.736 82.7953 466.628 86.5501 461.876C90.5215 456.85 94.8729 452.19 99.293 447.549C103.6 443.027 106.536 438.238 107.966 432.126C110.79 420.049 109.791 407.078 115.651 395.811Z" fill="#C5CFD6"/>
<path fill-rule="evenodd" clip-rule="evenodd" d="M13.306 428C19.2003 428 24.3823 431.124 27.9531 435.558C32.133 440.748 32.9772 447.086 34.6745 453.272C35.5191 456.35 36.9717 459.406 39.5174 461.498C41.8327 463.4 44.7721 463.78 47.5435 464.71C53.0822 466.567 57.5547 471.041 59.321 476.499C61.4758 483.158 59.1934 489.873 59.5864 496.622C59.9472 502.819 66.0576 506.685 70.9738 509.656C75.8215 512.586 80.1886 515.328 81.6487 521.035C83.1969 527.088 83.7164 533.844 81.5719 539.823C78.0015 549.779 67.5525 554.163 57.4561 554.842C48.2932 555.459 36.7719 554.491 29.8907 547.84C25.773 543.86 24.2819 538.293 24.4669 532.755C24.5818 529.311 25.264 525.899 26.146 522.571C26.7711 520.213 27.6157 517.864 27.8563 515.427C28.4959 508.942 22.5026 507.697 17.401 505.916C10.9183 503.654 6.37987 499.38 3.22399 493.425C0.285002 487.881 -0.948134 481.658 0.813701 475.554C1.71353 472.437 3.3456 469.61 5.55902 467.205C6.53336 466.146 7.90665 465.263 8.78608 464.151C9.60694 463.112 9.42823 461.766 9.14534 460.55C7.83732 454.931 3.76196 450.278 2.30451 444.668C0.988698 439.605 1.76655 433.304 6.39544 430.038C8.3953 428.627 10.8616 428.016 13.306 428Z" fill="#C5CFD6"/>
<path fill-rule="evenodd" clip-rule="evenodd" d="M21.3377 442.641C27.585 449.296 29.2831 458.325 29.7815 467.076C30.0606 471.983 29.7701 477.159 31.2118 481.919C32.4454 485.993 35.3373 489.107 38.3183 492.051C44.3188 497.975 51.0108 503.999 52.7659 512.574C53.7957 517.606 53.1006 522.804 54.5236 527.78C55.8175 532.304 58.0956 536.748 60.8665 540.568C63.0975 543.645 66.0042 546 68.443 548.867C69.1871 549.743 70.2529 551.031 69.9458 552.267C69.5865 553.714 67.7431 554.172 66.4352 553.945C63.3859 553.415 60.8191 550.503 58.8253 548.386C55.9098 545.291 53.4323 541.962 51.4187 538.227C49.1832 534.08 47.3833 529.679 46.6142 525.026C45.8161 520.199 46.2133 515.168 44.3909 510.535C41.3242 502.74 33.886 498.14 28.5082 492.064C21.8077 484.494 22.807 475.072 23.4933 465.759C23.8703 460.641 24.2451 454.862 21.6591 450.189C20.672 448.406 18.4711 446.743 18.0467 444.715C17.6579 442.858 19.7797 440.981 21.3377 442.641Z" fill="#AFB9C5"/>
<path fill-rule="evenodd" clip-rule="evenodd" d="M28 552C28.0004 590.058 34.2112 610 67.0001 610C99.789 610 106 590.058 106 552H28Z" fill="#89C5CC"/>
<path d="M199 497H165C163.895 497 163 497.895 163 499V504C163 505.105 163.895 506 165 506H199C200.105 506 201 505.105 201 504V499C201 497.895 200.105 497 199 497Z" fill="#AFB9C5"/>
<path fill-rule="evenodd" clip-rule="evenodd" d="M173 468C177.293 454.085 179.699 439.419 180.217 424H183H184.783C185.301 439.419 187.707 454.085 192 468H198.5C207.06 468 214 474.94 214 483.5C214 492.06 207.06 499 198.5 499H165.5C156.94 499 150 492.06 150 483.5C150 474.94 156.94 468 165.5 468H173Z" fill="#DDE3E9"/>
<path fill-rule="evenodd" clip-rule="evenodd" d="M146.622 354.679C158.081 353.56 169.541 353 181 353C192.459 353 203.919 353.56 215.378 354.679L220 434.133C207 435.378 194 436 181 436C168 436 155 435.378 142 434.133L146.622 354.679Z" fill="#C5CFD6"/>
<path fill-rule="evenodd" clip-rule="evenodd" d="M140 506H223H244V610H223V528H140V610H119V506H140Z" fill="#F2F2F2"/>
<path fill-rule="evenodd" clip-rule="evenodd" d="M537.381 328.208C546.214 349.197 561.229 363.781 569.182 385.605C573.898 398.547 575.864 412.62 575.983 427.032C576.048 434.86 575.911 442.694 575.875 450.522C575.839 458.156 575.632 465.741 574.984 473.327C574.332 480.952 573.603 488.487 573.282 496.159C573.031 502.137 572.917 509.091 570.891 514.544C569.279 518.881 565.183 519.516 564.097 514.256C563.493 511.333 563.569 508.068 563.636 505.063C563.721 501.208 563.945 497.359 564.06 493.504C564.519 478.036 563.923 462.566 564.235 447.092C564.539 431.973 566.482 416.871 564.332 401.853C562.556 389.452 558.046 378.802 552.862 368.593C547.874 358.771 542.445 349.187 539.075 338.014C538.107 334.806 537.359 331.481 537 328.03C537.157 327.957 537.284 328.016 537.381 328.208Z" fill="#C1DEE2"/>
<path fill-rule="evenodd" clip-rule="evenodd" d="M534.974 369.617C536.723 370.88 537.7 372.728 538.882 374.551C540.352 376.817 542.081 378.863 543.551 381.131C546.615 385.86 549.308 390.879 552.102 395.799C557.406 405.137 561.433 415.091 563.427 425.895C565.495 437.092 566.052 448.648 566.919 460.012C567.839 472.056 568.765 484.188 568.887 496.279C568.942 501.696 569.235 507.446 568.584 512.825C568.179 516.173 566.668 519.027 563.261 519C556.025 518.942 552.627 510.927 551.208 504.354C549.119 494.674 548.702 484.393 549.033 474.494C549.432 462.558 551.504 450.802 552.4 438.912C553.35 426.325 552.814 413.96 548.486 402.109C546.3 396.12 543.763 390.274 541.484 384.325C540.514 381.792 539.719 379.19 538.409 376.831C536.951 374.208 535.142 371.826 534 369C534.324 369.206 534.649 369.411 534.974 369.617Z" fill="#89C5CC"/>
<path fill-rule="evenodd" clip-rule="evenodd" d="M618.334 344.518C618.556 344.345 618.778 344.173 619 344C618.361 346.693 617.207 348.88 616.324 351.341C615.531 353.554 615.129 356.058 614.595 358.477C613.34 364.158 611.89 369.711 610.706 375.44C608.36 386.777 608.804 398.99 610.342 411.568C611.795 423.45 614.092 435.313 615.187 447.192C616.095 457.043 616.485 467.202 615.619 476.601C615.031 482.984 613.103 490.606 607.848 489.962C605.374 489.659 604.084 486.681 603.564 483.32C602.729 477.922 602.554 472.246 602.229 466.878C601.502 454.896 601.358 442.951 601.214 431.092C601.078 419.904 600.705 408.494 601.452 397.587C602.173 387.063 604.428 377.58 607.653 368.83C609.351 364.22 610.97 359.502 612.878 355.108C613.793 353.001 614.911 351.139 615.827 349.033C616.563 347.339 617.148 345.601 618.334 344.518Z" fill="#C1DEE2"/>
<path fill-rule="evenodd" clip-rule="evenodd" d="M537.209 404.302C538.166 402.695 540.272 407.993 540.593 408.66C540.457 408.328 540.321 407.997 540.184 407.667C542.083 410.825 543.821 414.113 544.901 417.734C545.97 421.319 546.888 424.977 547.891 428.587C549.774 435.361 552.202 441.943 553.907 448.778C555.569 455.438 555.988 461.986 555.585 468.875C555.167 476.035 554.911 483.306 555.399 490.462C555.632 493.88 556.743 497.064 557.504 500.354C558.266 503.648 558.866 506.986 559.767 510.239C559.974 509.815 560 511.232 560 511.339C559.994 512.152 559.881 512.833 559.619 513.604C558.948 515.586 557.691 517.269 555.778 517.816C552.322 518.803 549.112 515.659 547.998 512.339C546.399 507.575 545.517 502.311 544.755 497.304C544.057 492.713 543.891 488.094 544.099 483.44C544.508 474.261 546.169 465.202 546.618 456.026C547.107 446.036 545.128 436.649 543.471 426.925C542.673 422.239 541.91 417.598 540.356 413.134C539.727 411.326 538.907 409.731 538.048 408.061C537.558 407.112 536.569 405.418 537.209 404.302Z" fill="#C1DEE2"/>
<path fill-rule="evenodd" clip-rule="evenodd" d="M565.252 388.697C564.856 400.142 564.172 411.5 562.646 422.824C561.089 434.38 559.3 445.897 557.802 457.463C556.343 468.722 554.815 480.168 555.018 491.585C555.168 499.993 553.774 514.219 563.113 518.369C572.572 522.572 574.601 504.623 575.222 498.699C576.412 487.333 576.027 475.847 575.449 464.419C574.856 452.689 573.866 441.02 572.64 429.334C571.277 416.353 570.208 403.314 569.349 390.296C568.925 383.857 568.82 377.429 568.937 370.988C569.048 364.911 568.817 358.77 566.656 353C566.543 353.082 566.431 353.164 566.318 353.246" fill="#69A1AC"/>
<path fill-rule="evenodd" clip-rule="evenodd" d="M614.083 424.955C612.382 427.433 610.667 429.887 609.061 432.512C606.186 437.209 603.587 442.432 602.805 449.147C601.169 463.2 602.481 478.379 602.798 492.863C602.863 495.822 602.489 498.693 603.655 501.51C604.713 504.064 606.691 506.01 608.576 506C612.611 505.977 611.995 496.095 612.002 491.746C612.014 484.123 611.159 476.422 611.233 468.806C611.306 461.26 611.765 453.694 612.859 446.528C613.967 439.275 615.589 432.309 617.729 425.81C618.026 424.908 620.158 417.937 618.144 419.139" fill="#89C5CC"/>
<path fill-rule="evenodd" clip-rule="evenodd" d="M596.262 350C593.609 350 593.625 363.226 593.546 364.925C593.257 371.055 593.325 377.188 593.143 383.319C592.744 396.701 592.254 410.2 590.243 423.426C589.161 430.547 587.907 437.636 586.557 444.702C585.204 451.789 583.387 458.867 582.497 466.044C581.642 472.943 582.125 479.977 582.242 486.91C582.359 493.885 582.57 500.874 583.484 507.788C583.709 509.494 583.974 511.195 584.257 512.891C584.492 514.305 584.355 516.058 584.754 517.401C585.393 519.552 588.133 520.256 589.978 519.92C594.97 519.009 598.159 512.74 599.865 508.16C602.043 502.311 603.199 495.967 604.339 489.804C605.631 482.821 606.388 475.732 606.743 468.623C607.466 454.175 606.539 439.712 605.504 425.31C604.928 417.301 604.263 409.327 603.246 401.367C602.232 393.441 600.932 385.55 600.086 377.601C599.471 371.825 598.865 366.04 598.467 360.241C598.371 358.859 598.291 350 596.262 350Z" fill="#69A1AC"/>
<path fill-rule="evenodd" clip-rule="evenodd" d="M592.941 446.139C592.508 432.253 586.927 371.259 585.657 354.467C585.339 350.264 582.282 332.765 581.885 328C580.81 329.347 580.901 350.309 580.913 355.126C580.926 359.891 580.335 364.576 580.031 369.315C579.721 374.151 572.572 436.601 571.645 441.247C569.799 450.491 568.564 459.976 567.611 469.428C566.683 478.639 565.24 488.358 566.482 497.618C566.767 499.75 567.219 501.848 567.955 503.806C568.749 505.922 569.294 507.879 569.932 510.093C570.958 513.659 572.815 516.789 575.668 518.262C581.517 521.281 584.658 514.447 586.251 508.497C588.793 498.995 590.426 489.338 591.191 479.359C592.037 468.318 593.287 457.255 592.941 446.139Z" fill="#89C5CC"/>
<path d="M620 487H533C531.895 487 531 487.895 531 489V576C531 577.105 531.895 578 533 578H620C621.105 578 622 577.105 622 576V489C622 487.895 621.105 487 620 487Z" fill="white"/>
<path d="M529 497H523C521.895 497 521 497.895 521 499V608C521 609.105 521.895 610 523 610H529C530.105 610 531 609.105 531 608V499C531 497.895 530.105 497 529 497Z" fill="#C5CFD6"/>
<path d="M579 497H573C571.895 497 571 497.895 571 499V608C571 609.105 571.895 610 573 610H579C580.105 610 581 609.105 581 608V499C581 497.895 580.105 497 579 497Z" fill="#C5CFD6"/>
<path d="M630 497H624C622.895 497 622 497.895 622 499V608C622 609.105 622.895 610 624 610H630C631.105 610 632 609.105 632 608V499C632 497.895 631.105 497 630 497Z" fill="#C5CFD6"/>
</svg>
