<svg width="19" height="21" viewBox="0 0 19 21" fill="none" xmlns="http://www.w3.org/2000/svg">
<path d="M15.3405 3.4595C15.2605 3.4595 15.1805 3.4395 15.1105 3.3995C13.1905 2.4095 11.5305 1.9895 9.54051 1.9895C7.56051 1.9895 5.68051 2.4595 3.97051 3.3995C3.73051 3.5295 3.43051 3.4395 3.29051 3.1995C3.22814 3.08255 3.21415 2.94579 3.25155 2.81863C3.28895 2.69147 3.37475 2.58407 3.49051 2.5195C5.35051 1.5095 7.39051 0.989502 9.54051 0.989502C11.6705 0.989502 13.5305 1.4595 15.5705 2.5095C15.8205 2.6395 15.9105 2.9395 15.7805 3.1795C15.741 3.26286 15.6787 3.33337 15.6009 3.3829C15.523 3.43244 15.4328 3.45899 15.3405 3.4595ZM1.03051 8.7095C0.938329 8.71036 0.847714 8.68567 0.768713 8.63817C0.689713 8.59066 0.625415 8.52221 0.582951 8.44039C0.540488 8.35857 0.521518 8.26658 0.528148 8.17464C0.534777 8.0827 0.566745 7.99438 0.620507 7.9195C1.61051 6.5195 2.87051 5.4195 4.37051 4.6495C7.51051 3.0295 11.5305 3.0195 14.6805 4.6395C16.1805 5.4095 17.4405 6.4995 18.4305 7.8895C18.4689 7.94324 18.4962 8.00405 18.511 8.06842C18.5257 8.13278 18.5275 8.19943 18.5164 8.26451C18.5052 8.32959 18.4813 8.39182 18.446 8.4476C18.4106 8.50338 18.3646 8.55161 18.3105 8.5895C18.0805 8.7495 17.7705 8.6995 17.6105 8.4695C16.7348 7.22988 15.5715 6.22106 14.2205 5.5295C11.3505 4.0595 7.68051 4.0595 4.82051 5.5395C3.46051 6.2395 2.32051 7.2395 1.42051 8.4995C1.34051 8.6395 1.19051 8.7095 1.03051 8.7095ZM7.28051 20.7795C7.21493 20.7803 7.14991 20.7674 7.08964 20.7415C7.02936 20.7157 6.97515 20.6775 6.93051 20.6295C6.06051 19.7595 5.59051 19.1995 4.92051 17.9895C4.23051 16.7595 3.87051 15.2595 3.87051 13.6495C3.87051 10.6795 6.41051 8.2595 9.53051 8.2595C12.6505 8.2595 15.1905 10.6795 15.1905 13.6495C15.1905 13.9295 14.9705 14.1495 14.6905 14.1495C14.4105 14.1495 14.1905 13.9295 14.1905 13.6495C14.1905 11.2295 12.1005 9.2595 9.53051 9.2595C6.96051 9.2595 4.87051 11.2295 4.87051 13.6495C4.87051 15.0895 5.19051 16.4195 5.80051 17.4995C6.44051 18.6495 6.88051 19.1395 7.65051 19.9195C7.84051 20.1195 7.84051 20.4295 7.65051 20.6295C7.54051 20.7295 7.41051 20.7795 7.28051 20.7795ZM14.4505 18.9295C13.2605 18.9295 12.2105 18.6295 11.3505 18.0395C9.86051 17.0295 8.97051 15.3895 8.97051 13.6495C8.97051 13.3695 9.19051 13.1495 9.47051 13.1495C9.75051 13.1495 9.97051 13.3695 9.97051 13.6495C9.97051 15.0595 10.6905 16.3895 11.9105 17.2095C12.6205 17.6895 13.4505 17.9195 14.4505 17.9195C14.6905 17.9195 15.0905 17.8895 15.4905 17.8195C15.7605 17.7695 16.0205 17.9495 16.0705 18.2295C16.1205 18.4995 15.9405 18.7595 15.6605 18.8095C15.0905 18.9195 14.5905 18.9295 14.4505 18.9295ZM12.4405 20.9895C12.4005 20.9895 12.3505 20.9795 12.3105 20.9695C10.7205 20.5295 9.68051 19.9395 8.59051 18.8695C7.89979 18.1875 7.35208 17.3745 6.97947 16.4782C6.60686 15.5819 6.41683 14.6202 6.42051 13.6495C6.42051 12.0295 7.80051 10.7095 9.50051 10.7095C11.2005 10.7095 12.5805 12.0295 12.5805 13.6495C12.5805 14.7195 13.5105 15.5895 14.6605 15.5895C15.8105 15.5895 16.7405 14.7195 16.7405 13.6495C16.7405 9.8795 13.4905 6.8195 9.49051 6.8195C6.65051 6.8195 4.05051 8.3995 2.88051 10.8495C2.49051 11.6595 2.29051 12.6095 2.29051 13.6495C2.29051 14.4295 2.36051 15.6595 2.96051 17.2595C3.06051 17.5195 2.93051 17.8095 2.67051 17.8995C2.41051 17.9995 2.12051 17.8595 2.03051 17.6095C1.54865 16.3448 1.30127 15.0029 1.30051 13.6495C1.30051 12.4495 1.53051 11.3595 1.98051 10.4095C3.31051 7.6195 6.26051 5.8095 9.49051 5.8095C14.0405 5.8095 17.7405 9.3195 17.7405 13.6395C17.7405 15.2595 16.3605 16.5795 14.6605 16.5795C12.9605 16.5795 11.5805 15.2595 11.5805 13.6395C11.5805 12.5695 10.6505 11.6995 9.50051 11.6995C8.35051 11.6995 7.42051 12.5695 7.42051 13.6395C7.42051 15.3495 8.08051 16.9495 9.29051 18.1495C10.2405 19.0895 11.1505 19.6095 12.5605 19.9995C12.8305 20.0695 12.9805 20.3495 12.9105 20.6095C12.8605 20.8395 12.6505 20.9895 12.4405 20.9895Z" fill="black"/>
</svg>
