<svg width="567" height="406" viewBox="0 0 567 406" fill="none" xmlns="http://www.w3.org/2000/svg">
<path fill-rule="evenodd" clip-rule="evenodd" d="M458.738 116.49C463.346 111.081 466.464 104.453 465.943 97.0255C464.442 75.625 434.651 80.3328 428.857 91.1339C423.062 101.935 423.75 129.333 431.24 131.263C434.226 132.033 440.589 130.147 447.065 126.244L443 155H467L458.738 116.49Z" fill="#B28B67"/>
<path fill-rule="evenodd" clip-rule="evenodd" d="M438.336 79.37C441.616 78.37 446.377 78.0308 448.379 78.2603C447.24 75.5308 446.788 72.4899 447.156 69.5291C447.515 66.6521 448.8 64.2024 449.989 61.6354C450.537 60.4522 451.158 59.2754 452.084 58.3704C453.028 57.4483 454.222 56.8397 455.474 56.5494C456.755 56.2522 458.095 56.2769 459.378 56.5466C459.946 56.6659 460.455 56.9255 461.012 57.0698C461.582 57.2176 461.859 56.8608 462.273 56.5021C463.27 55.638 464.732 55.2114 465.994 55.0587C467.41 54.8875 468.879 55.101 470.229 55.5664C471.543 56.0194 472.805 56.7551 473.755 57.8268C474.178 58.3039 474.562 58.8469 474.812 59.4464C474.914 59.6924 474.931 59.8381 475.177 59.9283C475.404 60.0117 475.669 60.0141 475.904 60.0935C478.169 60.8609 480.107 62.6117 481.162 64.8595C481.777 66.1709 482.068 68.4798 481.989 71.0677C481.909 73.6556 479.572 80.4081 477.387 82.8711C475.436 85.0695 472.568 86.5203 469.801 87.1553C471.638 89.2548 472.86 91.8784 473.765 94.5467C474.747 97.445 475.355 100.457 475.579 103.525C475.792 106.44 475.812 109.524 475.129 112.377C474.489 115.045 473.122 117.234 470.839 118.622C469.794 119.258 468.669 119.736 467.537 120.173C466.422 120.603 465.304 121.022 464.136 121.263C461.925 121.72 459.378 121.642 457.675 119.882C457.061 119.248 456.386 118.451 455.939 117.676C455.778 117.397 455.68 117.215 455.876 116.943C456.11 116.616 456.489 116.366 456.79 116.111C458.507 114.656 459.57 112.713 459.837 110.405C460.109 108.063 459.48 105.039 457.203 104.017C454.392 102.755 451.296 104.204 448.797 105.554C447.735 101.806 445.555 98.4315 442.137 96.7124C438.355 94.8105 434.015 94.5879 430.129 92.9561C429.116 92.5309 428.085 92.0482 427.339 91.1818C427.027 90.8197 426.662 90.35 426.537 89.871C426.374 89.242 426.78 88.7145 427.093 88.2241C428.755 85.6236 435.057 80.37 438.336 79.37Z" fill="#191847"/>
<path fill-rule="evenodd" clip-rule="evenodd" d="M348.116 256.096C340.936 246.358 322.989 252.804 323 260.865C323.028 282.031 342.343 382.512 343.352 388.856C344.36 395.2 355.163 397.275 355.792 389.348C356.793 376.736 358.653 333.013 356.792 312.671C356.249 306.73 355.676 300.987 355.099 295.607C365.25 313.843 380.686 339.619 401.407 372.934L412.923 367.672C403.88 337.876 396.464 316.841 390.677 304.566C380.767 283.55 371.475 265.552 367.564 259.212C362.398 250.838 354.019 251.949 348.116 256.096Z" fill="#B28B67"/>
<path fill-rule="evenodd" clip-rule="evenodd" d="M412.1 351.125L372.573 257.487C363.103 242.255 336.554 260.587 339.783 269.422C347.115 289.479 384.4 354.414 386.585 360.39L412.1 351.125Z" fill="#AFB9C5"/>
<path fill-rule="evenodd" clip-rule="evenodd" d="M322 268.176C322 294.718 333.634 357.106 333.642 362.95L361.824 362C356.898 307.757 354.82 280.452 355.591 280.084C357.327 279.257 426.738 289.691 447.555 290.479C477.574 291.615 489.992 273.199 491 238.25H432.852C383.131 244.186 350.452 248.314 334.815 250.634C324.774 252.125 322 260.865 322 268.176Z" fill="#AFB9C5"/>
<path fill-rule="evenodd" clip-rule="evenodd" d="M414.482 364.736C416.29 367.363 417.373 369.396 417.732 370.835C418.168 372.584 418.513 375.21 418.767 378.713C416.738 379.219 398.495 383.767 364.041 392.357C361.447 388.01 361.635 385.267 364.605 384.129C367.576 382.99 370.037 382.017 371.988 381.209L394.597 363.528C395.032 363.187 395.661 363.264 396.001 363.699C396.007 363.707 396.012 363.714 396.018 363.722L398.642 367.28C401.808 367.897 404.278 367.984 406.052 367.542C407.493 367.182 409.337 366.104 411.586 364.307L411.586 364.307C412.449 363.618 413.707 363.758 414.397 364.621C414.427 364.659 414.455 364.697 414.482 364.736Z" fill="#E4E4E4"/>
<path fill-rule="evenodd" clip-rule="evenodd" d="M357.322 374.402C358.441 377.388 359 379.623 359 381.106C359 382.909 358.7 385.54 358.099 389C356.007 389 337.206 389 301.697 389C300.231 384.155 301.077 381.539 304.235 381.152C307.393 380.766 310.016 380.417 312.105 380.106L338.32 368.419C338.824 368.194 339.416 368.421 339.641 368.925C339.644 368.934 339.648 368.942 339.652 368.951L341.337 373.039C344.26 374.403 346.636 375.085 348.463 375.085C349.948 375.085 351.999 374.485 354.616 373.286L354.616 373.285C355.62 372.825 356.807 373.266 357.267 374.27C357.287 374.313 357.305 374.357 357.322 374.402Z" fill="#E4E4E4"/>
<path d="M308.5 389H354.5C356.433 389 358 390.567 358 392.5C358 394.433 356.433 396 354.5 396H308.5C306.567 396 305 394.433 305 392.5C305 390.567 306.567 389 308.5 389Z" fill="#2F3676"/>
<path fill-rule="evenodd" clip-rule="evenodd" d="M494 244H387C381.477 244 377 248.477 377 254V303H500C502.209 303 504 301.209 504 299V254C504 248.477 499.523 244 494 244Z" fill="#2F3676"/>
<path fill-rule="evenodd" clip-rule="evenodd" d="M387 244H384.806C379.909 244 375.732 247.547 374.938 252.38L353 386H363.686" fill="#2F3676"/>
<path d="M358 406C348.059 406 340 397.941 340 388C340 378.059 348.059 370 358 370C367.941 370 376 378.059 376 388C376 397.941 367.941 406 358 406Z" fill="#191847"/>
<path fill-rule="evenodd" clip-rule="evenodd" d="M491 404C532.974 404 567 369.974 567 328C567 286.026 532.974 252 491 252C449.026 252 415 286.026 415 328C415 369.974 449.026 404 491 404ZM491 390C456.758 390 429 362.242 429 328C429 293.758 456.758 266 491 266C525.242 266 553 293.758 553 328C553 362.242 525.242 390 491 390Z" fill="#191847"/>
<path d="M487 262H495V394H487V262Z" fill="#191847"/>
<path d="M442.917 282.745L445.745 279.917C446.526 279.136 447.793 279.136 448.574 279.917L539.083 370.426C539.864 371.207 539.864 372.474 539.083 373.255L536.255 376.083C535.474 376.864 534.207 376.864 533.426 376.083L442.917 285.574C442.136 284.792 442.136 283.526 442.917 282.745Z" fill="#191847"/>
<path d="M425 330V326C425 324.895 425.895 324 427 324H555C556.105 324 557 324.895 557 326V330C557 331.105 556.105 332 555 332H427C425.895 332 425 331.105 425 330Z" fill="#191847"/>
<path d="M445.745 376.083L442.917 373.255C442.136 372.474 442.136 371.207 442.917 370.426L533.426 279.917C534.207 279.136 535.474 279.136 536.255 279.917L539.083 282.745C539.864 283.526 539.864 284.793 539.083 285.574L448.574 376.083C447.793 376.864 446.526 376.864 445.745 376.083Z" fill="#191847"/>
<path fill-rule="evenodd" clip-rule="evenodd" d="M389.544 135.341L351.64 123.962C344.569 118.458 337.899 114.433 331.631 111.889C329.808 111.545 326.79 111.745 330.562 116.023C334.333 120.301 338.108 124.971 337.031 126.765C335.954 128.559 332.031 127.206 330.895 130.048C330.138 131.942 336.638 133.299 350.395 134.118L379.866 151.462L389.544 135.341ZM392.893 202.168L360.995 225.592C352.343 227.926 345.115 230.831 339.311 234.305C337.94 235.554 336.283 238.085 341.969 237.647C347.655 237.21 353.656 237.006 354.441 238.945C355.226 240.885 351.785 243.205 353.371 245.822C354.428 247.566 359.423 243.192 368.357 232.698L399.945 219.599L392.893 202.168Z" fill="#B28B67"/>
<path fill-rule="evenodd" clip-rule="evenodd" d="M442.439 139.087C425.069 171.476 399.95 196.305 363.534 222.116L377.323 237.663C417.982 222.553 439.441 213.436 449.979 182.835C452.624 175.154 454.472 150.671 456.058 137.789L442.439 139.087Z" fill="#89C5CC"/>
<path fill-rule="evenodd" clip-rule="evenodd" d="M491 247H414C431.442 193.805 440.352 157.296 440.73 137.472C440.749 136.461 442.616 134.68 443.441 134.913C449.48 136.619 455.943 135.981 462.828 133C481.083 162.358 487.395 198.505 491 247Z" fill="#F2F2F2"/>
<path fill-rule="evenodd" clip-rule="evenodd" d="M456.257 133.047C434.186 133.228 398.376 137.259 357.077 124L353 144.373C384.213 164.448 415.819 179.999 443.514 177.791C431.488 229.377 432.042 271.606 458.593 271.606C471.272 271.606 484.957 271.606 499.649 271.606C506.17 227.784 489.032 167.024 473.144 136.377C472.537 135.206 471.246 133 468.203 133C465.552 133 461.575 133 456.273 133C456.268 133.016 456.263 133.032 456.257 133.047Z" fill="#89C5CC"/>
<path fill-rule="evenodd" clip-rule="evenodd" d="M117.698 36.4704C113.09 31.0616 109.972 24.4331 110.493 17.0057C111.994 -4.3948 141.784 0.313036 147.579 11.1142C153.374 21.9153 152.685 49.3132 145.196 51.2437C142.209 52.0135 135.847 50.1277 129.371 46.2245L133.436 74.9802H109.436L117.698 36.4704Z" fill="#B28B67"/>
<path fill-rule="evenodd" clip-rule="evenodd" d="M130.571 19.369C131.49 32.1662 133.92 38.5648 137.862 38.5648C143.775 38.5648 148.791 34.8112 151.386 34.8112C153.277 34.8112 152.855 37.1778 151.601 38.9326C150.567 40.3803 145.53 41.7757 145.53 44.0202C145.53 46.2646 149.509 44.5282 149.509 45.8593C149.509 48.0612 150.209 52.2011 146.387 52.2011C142.52 52.2011 131.431 50.7917 129.53 45.0516C128.304 41.3471 127.511 33.6707 127.151 22.0223C126.917 21.9944 126.678 21.9801 126.436 21.9801C123.122 21.9801 120.436 24.6664 120.436 27.9801C120.436 29.6623 121.128 31.1829 122.243 32.2723C120.855 34.2319 119.299 36.279 117.516 38.3913C110.818 34.3728 105.848 22.6091 112.396 11.3084C114.206 5.77235 118.304 2.81535 123.143 1.44232C127.063 -0.197471 131.133 -0.382359 134.568 0.60068C141.302 1.17827 147.315 3.23162 149.019 4.45106C149.019 10.8263 147.784 12.7178 137.233 12.5511C134.64 13.9202 132.647 16.278 130.571 19.369Z" fill="#191847"/>
<path fill-rule="evenodd" clip-rule="evenodd" d="M101.436 157.98L137.691 285.207L164.143 378.98H183.436L155.327 157.98H101.436Z" fill="#89C5CC"/>
<path fill-rule="evenodd" clip-rule="evenodd" d="M91.7403 157.98C90.9017 223.554 88.0422 259.32 87.1617 265.278C86.2812 271.236 72.9681 309.136 47.2223 378.98H67.2086C99.985 311.977 118.282 274.076 122.098 265.278C125.915 256.48 137.694 220.714 155.436 157.98H91.7403Z" fill="#89C5CC"/>
<path fill-rule="evenodd" clip-rule="evenodd" d="M45.4359 396.98L46.4359 375.98H67.4359C77.3935 382.98 90.3935 388.647 106.436 392.98V396.98H68.4359L55.4359 394.98V396.98H45.4359Z" fill="#323337"/>
<path fill-rule="evenodd" clip-rule="evenodd" d="M161.436 396.98L162.436 375.98H183.436C193.394 382.98 206.394 388.647 222.436 392.98V396.98H184.436L171.436 394.98V396.98H161.436Z" fill="#323337"/>
<path fill-rule="evenodd" clip-rule="evenodd" d="M185.795 141.59L215.981 167.182C224.449 170.114 231.457 173.516 237.005 177.387C238.286 178.729 239.762 181.368 234.12 180.535C228.478 179.703 222.506 179.08 221.588 180.96C220.67 182.84 223.941 185.394 222.176 187.894C221 189.561 216.321 184.849 208.142 173.757L177.545 158.487L185.795 141.59ZM49.1031 130.516L66.8149 133.088C47.8029 174.338 37.6103 196.153 36.2372 198.534C33.1476 203.89 36.7811 213.221 38.2015 218.16C31.0231 220.233 33.3157 209.142 24.2391 211.908C15.9543 214.433 9.11766 220.157 0.912403 213.35C-0.0963857 212.514 -0.946166 209.777 2.26023 208.183C10.2485 204.211 21.9772 196.943 23.8004 194.264C26.2866 190.611 34.7208 169.362 49.1031 130.516Z" fill="#B28B67"/>
<path fill-rule="evenodd" clip-rule="evenodd" d="M123.131 58.312L134.106 54.6826C148.993 91.8729 171.196 127.856 208.293 158.25L199.12 174.077C166.517 154.872 135.654 139.953 123.131 111.135C118.928 101.463 122.788 69.877 123.131 58.312Z" fill="#C5CFD6"/>
<path fill-rule="evenodd" clip-rule="evenodd" d="M85.4359 162.98C116.874 166.313 141.62 166.313 159.672 162.98C161.909 162.567 162.262 158.822 161.224 156.281C145.072 116.704 133.996 82.1716 133.996 54.6826C131.033 56.1768 125.846 56.4007 118.436 55.3544C98.5221 83.6827 89.3685 116.186 85.4359 162.98Z" fill="#323337"/>
<path fill-rule="evenodd" clip-rule="evenodd" d="M113.485 52.9801H121.784C123.717 64.345 129.812 218.243 148.627 268.586H46.8213C49.0284 222.467 66.4389 167.067 84.0758 120.708C68.4805 134.98 54.8878 159.161 43.2979 193.253L24.2286 188.358C38.4072 127.261 67.5585 82.355 111.682 53.6391C111.778 53.4184 111.873 53.1987 111.968 52.9801H112.702C112.972 52.8066 113.243 52.6337 113.515 52.4614L113.485 52.9801Z" fill="#DDE3E9"/>
</svg>
